<svg width="1440" height="605" viewBox="0 0 1440 605" fill="none" xmlns="http://www.w3.org/2000/svg">
<path d="M1080.5 477.994C589.5 15.2515 -205.5 153.251 -194.5 153.251L-21.5003 322.494C132.099 244.494 295.832 229.66 358.499 231.994C881.298 622.794 1300 625.161 1444 577.494V244.494C1396 325.294 1181.66 433.827 1080.5 477.994Z" fill="url(#paint0_linear_73_245)"/>
<path d="M-415.613 238.828C-394.154 229.689 110.399 45.7622 425.566 255.55C740.733 465.338 862.352 585.688 1106.72 479.756C1195.82 437.12 1391.2 332.589 1460 255.55" stroke="#A0D3F2"/>
<path d="M-347.354 248.937C-325.895 239.799 178.658 55.8719 493.825 265.66C808.992 475.448 930.611 595.797 1174.98 489.865C1244.82 454.191 1398.9 371.125 1456.5 324.252" stroke="#A0D3F2"/>
<path d="M-279.096 259.047C-257.637 249.908 246.916 65.9814 562.083 275.769C877.25 485.557 998.869 605.907 1243.24 499.975C1295.99 473.067 1411.4 410.451 1451 375.251" stroke="#A0D3F2"/>
<path d="M-212.042 269.17C-190.583 260.031 313.969 76.1044 629.136 285.892C944.304 495.68 1065.92 616.03 1310.29 510.098C1350.79 487.987 1438.2 439.865 1463.8 424.265" stroke="#A0D3F2"/>
<path d="M-142.579 279.266C-121.12 270.128 383.432 86.2006 698.6 295.989C1013.77 505.776 1135.39 626.126 1379.76 520.194C1407.67 509.713 1469.1 486.351 1491.5 476.751" stroke="#A0D3F2"/>
<path d="M-74.321 289.376C-52.862 280.237 451.691 96.3105 766.858 306.098C1082.02 515.886 1203.64 636.236 1448.01 530.304" stroke="#A0D3F2"/>
<path d="M-6.06253 299.486C15.3964 290.347 519.949 106.42 835.116 316.208C1150.28 525.996 1271.9 646.346 1516.27 540.413" stroke="#A0D3F2"/>
<defs>
<linearGradient id="paint0_linear_73_245" x1="32.561" y1="130.75" x2="1078.51" y2="973.374" gradientUnits="userSpaceOnUse">
<stop stop-color="#D5E7F2"/>
<stop offset="1" stop-color="white"/>
</linearGradient>
</defs>
</svg>
