<svg width="160" height="177" viewBox="0 0 160 177" fill="none" xmlns="http://www.w3.org/2000/svg">
<path d="M108.171 88.0444C107.553 88.3597 106.943 88.7194 106.358 89.0988C103.071 91.2353 100.192 95.728 98.9084 100.409C97.9146 104.075 97.9159 107.762 99.1445 110.543L100.227 110.476C100.443 109.058 100.958 106.238 101.986 103.099C103.43 98.6742 105.834 93.5978 110.199 91.4138C114.605 89.2236 120.699 88.699 126.744 89.3161C129.661 89.6197 132.551 90.1868 135.238 90.9897C126.88 84.516 116.074 83.9548 108.171 88.0444ZM111.247 93.5237C107.93 95.1723 105.591 99.6571 104.227 103.835C102.857 108.002 102.42 111.722 102.42 111.722L102.299 112.694L97.8422 113C97.5104 114.624 97.9941 116.493 98.8974 118.148C99.6995 119.604 100.857 120.835 101.74 121.472L104.278 118.413L105.119 118.88C112.667 123.02 121.911 122.563 128.586 119.464C134.743 115.293 141.998 108.696 143.321 99.6019L138.977 101.452L140.845 95.9295C138.786 94.7176 136.203 93.6855 133.393 92.9305C133.494 93.0408 133.577 93.1747 133.648 93.3146C134.172 94.3403 133.761 95.6078 132.735 96.1313C131.709 96.6548 130.442 96.244 129.918 95.2183C129.395 94.1926 129.806 92.9251 130.831 92.4016L130.936 92.348C129.488 92.044 128 91.8047 126.5 91.6591C120.766 91.0746 114.994 91.655 111.247 93.5237ZM124.491 94.2274L126.844 94.2898C126.664 101.595 129.973 106.811 135.59 108.72L134.824 110.962C128.21 108.711 124.294 102.305 124.491 94.2274ZM85.7865 115.011C87.0537 117.493 88.0233 119.951 87.3458 123.5C88.6687 123.824 89.7692 124.408 90.6787 125.266C91.6957 126.231 92.4842 127.459 93.3217 128.942C94.4489 128.528 96.0674 127.496 97.5021 126.191C98.5046 125.268 99.4276 124.224 100.134 123.276C98.8854 122.356 97.7383 120.943 96.8291 119.277C95.8071 117.418 95.1331 115.177 95.4484 112.973C94.1428 112.92 92.7343 113.007 91.3669 113.25C89.3715 113.71 87.4836 114.144 85.7865 115.011ZM133.687 97.9962C134.712 97.4727 135.98 97.8836 136.504 98.9093C137.027 99.9349 136.616 101.202 135.59 101.726C134.565 102.249 133.297 101.839 132.774 100.813C132.25 99.7873 132.661 98.5197 133.687 97.9962ZM105.011 121.462C105.549 122.084 106.28 122.681 107.192 123.258C108.951 124.373 111.323 125.307 113.909 125.942C119.075 127.198 125.109 127.189 128.864 125.537C131.529 124.367 133.67 121.424 135.187 118.063C135.354 117.699 135.515 117.323 135.664 116.953C133.57 118.463 131.737 120.486 129.668 121.556C122.62 124.874 113.132 125.456 105.011 121.462ZM140.038 112.341C139.401 113.136 138.735 113.902 138.044 114.622C138.849 115.651 139.344 116.794 139.745 117.897C140.435 117.089 140.977 116.166 141.289 114.993C141.176 114.052 140.689 113.213 140.038 112.341Z" fill="#D5E7F2"/>
<path d="M71.6924 20.418C60.1441 14.9397 45.5549 15.7333 35.4919 29.0307C34.1004 30.8696 33.9055 32.4003 34.4187 34.1194C34.8594 35.5952 35.9595 37.2216 37.6017 38.8538C39.3825 38.591 41.652 37.1904 43.191 35.18C42.2268 37.6182 41.8526 40.7008 42.7018 42.8753C44.5135 44.071 46.5249 45.2324 48.6388 46.3333C56.0957 32.3596 73.1847 38.8755 67.7373 53.7386C69.6784 54.2203 71.5857 54.6013 73.4039 54.8574C76.2267 53.2993 76.4699 51.4746 77.1566 49.0216C77.5859 51.2865 77.2588 53.1912 79.4518 55.2103C81.3493 55.1241 83.0056 54.8149 84.3124 54.2912C86.1995 53.5349 87.3426 52.4528 87.8983 50.7114C91.7892 38.5165 83.8726 26.4484 72.241 20.6826C72.059 20.5928 71.8762 20.5046 71.6926 20.418L71.6924 20.418ZM65.5866 21.7795C69.2731 23.5576 70.8228 27.9844 69.0449 31.6704C67.2669 35.3569 62.8355 36.9044 59.1493 35.1265C58.7956 34.9559 58.4615 34.7612 58.148 34.5447C56.529 36.4771 53.7472 37.1482 51.3724 36.0028C48.5657 34.6491 47.3877 31.2754 48.7414 28.4688C49.9807 25.8993 52.9125 24.694 55.5527 25.5478C55.5977 25.4423 55.6482 25.3375 55.6985 25.2332C57.4764 21.547 61.9005 20.0018 65.5868 21.7798L65.5866 21.7795ZM75.9273 37.2046C77.5612 37.9927 78.2475 39.958 77.4595 41.5917C76.6717 43.2252 74.7085 43.9069 73.0747 43.1189C71.4408 42.3308 70.7573 40.3725 71.5451 38.7391C72.3332 37.1051 74.2935 36.4162 75.9274 37.2043L75.9273 37.2046ZM80.1345 58.3136C79.1108 58.3792 78.0443 58.3846 76.947 58.3378C77.7356 61.617 77.4219 65.0397 76.4302 68.2054C74.7527 73.5605 70.9257 77.9349 68.1241 78.9259C62.6585 80.8587 59.3095 85.3907 58.1861 90.5896C57.3425 94.4933 57.6788 98.7923 59.1476 102.878L63.5396 104.996C61.0935 100.547 60.3351 95.497 61.2525 91.2525C62.1901 86.9114 64.7546 83.448 69.1739 81.8853C73.5999 80.3198 77.5125 75.2575 79.4277 69.1437C80.4858 65.7658 80.8636 61.9945 80.1347 58.3131L80.1345 58.3136ZM72.6638 57.9272C71.6189 57.7749 70.5557 57.5808 69.4815 57.3594C69.6391 60.4777 69.3768 63.0051 68.7031 65.0146C67.5639 68.4136 65.3844 70.5235 61.5195 72.1034C56.1495 74.2986 53.9092 78.5985 51.3203 82.5925C48.7694 86.5281 45.8772 90.3768 38.9882 93.1544L42.6712 94.9308C48.5553 91.9333 51.6165 87.904 53.9531 84.2991C56.6402 80.1535 58.3685 76.784 62.7042 75.0117C67.1471 73.1955 70.2572 70.2506 71.6781 66.0118C72.4585 63.6831 72.7641 61.0156 72.6639 57.9266L72.6638 57.9272ZM65.9272 56.5251C62.3169 55.57 58.6634 54.2997 55.1998 52.8486C52.6437 51.778 50.0661 50.6037 47.5925 49.337C44.404 50.4165 41.4928 51.9038 39.139 53.8032C35.2082 56.9749 32.8395 61.5375 33.9376 66.7377C33.9544 66.817 33.9664 66.8985 33.9786 66.979C31.9864 67.152 29.9003 67.1566 27.726 67.0869C23.4957 66.9506 19.001 66.4823 14.4388 66.4826C17.4397 62.7761 20.648 60.2083 23.3835 59.2229C27.2196 57.8408 31.1357 56.8527 34.5637 53.8283C36.7836 51.8696 38.6969 49.1121 40.2534 45.0282C39.3558 44.4106 38.4827 43.7581 37.6361 43.0721C36.1715 47.2572 34.4165 49.773 32.4875 51.4751C29.7059 53.9294 26.3183 54.8317 22.3175 56.2733C18.1462 57.7757 13.8912 61.47 10.2664 66.6385C8.45018 66.7812 6.6358 67.0323 4.82909 67.4484L3.00951 71.221C4.66604 70.6685 6.36437 70.2969 8.09437 70.0546C6.90435 72.1093 5.8122 74.3308 4.85258 76.6908L7.68928 78.059C8.93553 74.9891 10.4425 72.1774 12.0806 69.7043C17.1733 69.4961 22.4463 70.0604 27.6271 70.227C29.5596 70.2893 31.4907 70.2834 33.3966 70.1425C32.6098 71.7256 31.0887 73.3512 28.8153 74.8683C24.8926 77.4855 18.9289 79.5484 11.8783 80.0796L17.0742 82.5857C22.4619 81.6172 27.0821 79.7984 30.557 77.4799C33.7949 75.3194 36.1364 72.6114 36.9 69.7054C41.2389 68.9257 45.336 67.1857 48.8358 63.626C50.0866 64.5557 51.5639 65.1276 52.8205 65.1518C52.8677 65.153 52.9146 65.1502 52.9613 65.15C46.7281 74.9856 36.4839 82.7916 22.3741 85.1419L27.0217 87.3835C41.7787 83.6799 52.2409 74.0257 58.003 62.5988C61.3755 62.8174 64.6993 60.8313 65.9268 56.5253L65.9272 56.5251ZM47.4273 52.7485C47.3152 53.4341 47.3386 54.1014 47.4583 54.7623L47.6088 55.5863L47.0065 56.1701C45.8366 57.3062 45.664 58.3773 45.9762 59.6593C46.1092 60.2046 46.362 60.7733 46.7089 61.33C43.8678 64.3041 40.6466 65.8194 37.0851 66.5429C37.063 66.3914 37.0366 66.2406 37.0058 66.0907C36.1609 62.0902 37.7898 58.9223 41.1075 56.2447C42.8226 54.8611 44.996 53.6819 47.4271 52.7484L47.4273 52.7485Z" fill="#D5E7F2"/>
<path d="M22.4822 144.179C16.725 145.623 12.5822 150.412 10.5411 154.132L3.88569 151.279C2.96117 150.883 1.96033 151.803 2.38587 152.659L5.70653 159.341L5.93216 166.799C5.96096 167.755 7.27767 168.093 7.9057 167.308L12.4268 161.652C15.982 163.968 21.8952 166.234 27.6524 164.79C36.4484 162.584 41.5113 152.55 40.9943 150.489C40.4773 148.428 31.2782 141.972 22.4822 144.179ZM31.0497 154.627C30.2018 154.839 29.3402 154.32 29.1261 153.466C28.9119 152.612 29.4263 151.748 30.2741 151.535C31.1226 151.322 31.9834 151.842 32.1976 152.696C32.4117 153.549 31.8975 154.414 31.0497 154.627Z" fill="#D5E7F2"/>
</svg>
