<svg width="46" height="28" viewBox="0 0 46 28" fill="none" xmlns="http://www.w3.org/2000/svg">
<path d="M2.95508 0.000119347C3.72741 -0.00682492 4.47154 0.28952 5.02734 0.824338L13.9746 9.74524C14.8748 8.77201 16.0404 7.86443 17.3779 7.07824C20.166 5.43393 23.8911 4.19398 28.0156 4.02063L28.8438 4.00012C28.6579 4.33194 28.4681 4.66395 28.2842 4.9718L28.2285 5.07238C26.4505 8.47433 25.4179 11.3506 25.4219 14.2726C25.428 17.2024 26.4724 19.8985 28.2383 22.9503C28.4217 23.3086 28.6204 23.659 28.834 24.0001C24.386 23.9681 20.3499 22.674 17.3779 20.922C16.0314 20.1287 14.8596 19.2137 13.957 18.2345L5.0293 27.1398C4.47661 27.6907 3.72675 28.0003 2.94531 28.0001C2.16402 27.9998 1.41464 27.6898 0.862305 27.1388C0.310123 26.5877 -0.000106515 25.8407 2.74334e-08 25.0616C0.000184199 24.2824 0.310591 23.5344 0.863281 22.9835L9.89063 13.9825L0.863281 4.98059C0.326377 4.42677 0.0288473 3.68446 0.0351563 2.91418C0.0415022 2.14386 0.351473 1.40643 0.897461 0.861447C1.44343 0.316572 2.18268 0.00717327 2.95508 0.000119347ZM33.1377 4.48059C35.9817 5.14458 38.4023 6.41785 40.3223 7.76184C43.1042 9.70978 44.938 11.8802 45.6221 12.8302C45.8677 13.1708 46 13.5802 46 14.0001C46 14.4201 45.8677 14.8294 45.6221 15.17C44.9381 16.12 43.1042 18.2884 40.3223 20.2404C38.4423 21.5543 36.0804 22.8046 33.3125 23.4806C32.7226 22.6727 32.122 21.7783 31.792 21.1144C31.7734 21.0758 31.7531 21.0361 31.7305 20.9962C30.0965 18.1823 29.4259 16.1937 29.4219 14.2657C29.42 12.3199 30.0902 10.1514 31.7461 6.97571C32.2299 6.16599 32.7338 5.24236 33.1377 4.48059ZM33.9717 11.254C33.4414 11.2541 32.9326 11.465 32.5576 11.84C32.1827 12.215 31.9717 12.7237 31.9717 13.254C31.9717 13.7843 32.1827 14.293 32.5576 14.6681C32.9326 15.0431 33.4414 15.2539 33.9717 15.254H33.9922C34.5226 15.254 35.0312 15.0431 35.4063 14.6681C35.7812 14.293 35.9922 13.7844 35.9922 13.254C35.9921 12.7237 35.7813 12.215 35.4063 11.84C35.0312 11.465 34.5225 11.2541 33.9922 11.254H33.9717Z" fill="#A0D3F2"/>
</svg>
