<svg width="155" height="110" viewBox="0 0 155 110" fill="none" xmlns="http://www.w3.org/2000/svg">
<path d="M103.171 24.0444C102.553 24.3597 101.943 24.7194 101.358 25.0988C98.0707 27.2353 95.1922 31.728 93.9084 36.4089C92.9146 40.0749 92.9159 43.7619 94.1445 46.5433L95.2267 46.4758C95.4431 45.0577 95.9582 42.2384 96.9856 39.0989C98.4296 34.6742 100.834 29.5978 105.199 27.4138C109.605 25.2236 115.699 24.699 121.744 25.3161C124.661 25.6197 127.551 26.1868 130.238 26.9897C121.88 20.516 111.074 19.9548 103.171 24.0444ZM106.247 29.5237C102.93 31.1723 100.591 35.6571 99.2273 39.8353C97.8573 44.0018 97.4199 47.7217 97.4199 47.7217L97.2992 48.6942L92.8422 49.0004C92.5104 50.6243 92.9941 52.493 93.8974 54.1476C94.6995 55.6041 95.8568 56.8352 96.7399 57.4716L99.2779 54.4132L100.119 54.8803C107.667 59.0198 116.911 58.5627 123.586 55.4642C129.743 51.293 136.998 44.6958 138.321 35.6019L133.977 37.4521L135.845 31.9295C133.786 30.7176 131.203 29.6855 128.393 28.9305C128.494 29.0408 128.577 29.1747 128.648 29.3146C129.172 30.3403 128.761 31.6078 127.735 32.1313C126.709 32.6548 125.442 32.244 124.918 31.2183C124.395 30.1926 124.806 28.9251 125.831 28.4016L125.936 28.348C124.488 28.044 123 27.8047 121.5 27.6591C115.766 27.0746 109.994 27.655 106.247 29.5237ZM119.491 30.2274L121.844 30.2898C121.664 37.5951 124.973 42.8115 130.59 44.7196L129.824 46.9616C123.21 44.7105 119.294 38.3053 119.491 30.2274ZM80.7865 51.0105C82.0537 53.4932 83.0233 55.9513 82.3458 59.5C83.6687 59.8238 84.7692 60.4081 85.6787 61.2661C86.6957 62.231 87.4842 63.4593 88.3217 64.9418C89.4489 64.528 91.0674 63.4963 92.5021 62.191C93.5046 61.268 94.4276 60.2239 95.1338 59.2758C93.8854 58.3556 92.7383 56.943 91.8291 55.2767C90.8071 53.4183 90.1331 51.1765 90.4484 48.9734C89.1428 48.9199 87.7343 49.007 86.3669 49.2495C84.3715 49.7097 82.4836 50.1444 80.7865 51.0105ZM128.687 33.9962C129.712 33.4727 130.98 33.8836 131.504 34.9093C132.027 35.9349 131.616 37.2025 130.59 37.726C129.565 38.2495 128.297 37.8386 127.774 36.8129C127.25 35.7873 127.661 34.5197 128.687 33.9962ZM100.011 57.4621C100.549 58.0838 101.28 58.6806 102.192 59.2583C103.951 60.3732 106.323 61.3075 108.909 61.9415C114.075 63.1979 120.109 63.1889 123.864 61.5367C126.529 60.3675 128.67 57.4236 130.187 54.0634C130.354 53.6992 130.515 53.3233 130.664 52.9533C128.57 54.4631 126.737 56.4856 124.668 57.5562C117.62 60.8744 108.132 61.4564 100.011 57.4621ZM135.038 48.3405C134.401 49.1359 133.735 49.9022 133.044 50.6219C133.849 51.6511 134.344 52.7941 134.745 53.8969C135.435 53.0894 135.977 52.1661 136.289 50.993C136.176 50.0517 135.689 49.213 135.038 48.3405Z" fill="#D5E7F2"/>
<path d="M58.7958 42.224C55.2614 43.1105 52.7146 46.0364 51.4585 48.3082L47.3769 46.574C46.8099 46.3329 46.1949 46.8956 46.4552 47.4173L48.4867 51.4909L48.6181 56.0415C48.6348 56.6244 49.4426 56.8297 49.8287 56.35L52.6085 52.8947C54.7881 54.3042 58.4148 55.6815 61.9492 54.7949C67.3492 53.4404 70.4657 47.3138 70.1504 46.0567C69.835 44.7996 64.1959 40.8694 58.7958 42.224ZM64.0436 48.5907C63.5231 48.7213 62.9949 48.4049 62.8643 47.8844C62.7336 47.3635 63.0501 46.8356 63.5706 46.7051C64.0915 46.5744 64.6193 46.8905 64.75 47.4114C64.8805 47.9319 64.5641 48.4601 64.0436 48.5907Z" fill="#D5E7F2"/>
<path d="M10.7079 40.943C7.96462 41.6311 5.98785 43.9021 5.01288 45.6653L1.84492 44.3194C1.40486 44.1322 0.927466 44.5689 1.12953 44.9739L2.70629 48.1357L2.80828 51.6677C2.82129 52.1201 3.44821 52.2795 3.74793 51.9071L5.90553 49.2252C7.59723 50.3193 10.4121 51.3883 13.1554 50.7001C17.3467 49.6488 19.7656 44.8936 19.5208 43.9179C19.2761 42.9422 14.8992 39.8917 10.7079 40.943ZM14.781 45.8847C14.377 45.986 13.967 45.7404 13.8657 45.3364C13.7643 44.9321 14.0099 44.5224 14.4139 44.4211C14.8182 44.3197 15.2278 44.565 15.3292 44.9693C15.4306 45.3733 15.185 45.7833 14.781 45.8847Z" fill="#D5E7F2"/>
<path d="M26.917 77.1788C21.1598 78.6229 17.0171 83.4119 14.9759 87.1321L8.3205 84.2795C7.39599 83.8829 6.39515 84.8035 6.82068 85.6594L10.1413 92.341L10.367 99.7996C10.3958 100.755 11.7125 101.094 12.3405 100.308L16.8616 94.6522C20.4168 96.9679 26.33 99.2344 32.0872 97.7902C40.8832 95.5838 45.9462 85.5505 45.4291 83.4893C44.9121 81.4282 35.713 74.9724 26.917 77.1788ZM35.4845 87.627C34.6366 87.8397 33.775 87.3198 33.561 86.4664C33.3467 85.6123 33.8611 84.748 34.7089 84.5353C35.5574 84.3224 36.4182 84.8418 36.6325 85.6959C36.8465 86.5493 36.3323 87.4143 35.4845 87.627Z" fill="#D5E7F2"/>
</svg>
