<svg width="1440" height="72" viewBox="0 0 1440 72" fill="none" xmlns="http://www.w3.org/2000/svg">
<g clip-path="url(#clip0_73_244)">
<g clip-path="url(#clip1_73_244)">
<path d="M1879 47V996H-238V47C-215.019 47 -215.019 58.334 -192.009 58.334C-168.999 58.334 -168.999 47 -145.99 47C-122.98 47 -122.98 58.334 -99.9705 58.334C-76.9609 58.334 -76.9892 47 -53.9796 47C-30.9699 47 -30.9699 58.334 -7.9603 58.334C15.0493 58.334 15.0493 47 38.059 47C61.0686 47 61.0403 58.334 84.0499 58.334C107.06 58.334 107.06 47 130.069 47C153.079 47 153.051 58.334 176.088 58.334C199.126 58.334 199.098 47 222.108 47C245.117 47 245.117 58.334 268.099 58.334C291.08 58.334 291.108 47 314.118 47C337.128 47 337.241 58.334 360.137 58.334C383.034 58.334 383.147 47 406.157 47C429.166 47 429.166 58.334 452.176 58.334C475.185 58.334 475.185 47 498.195 47C521.205 47 521.205 58.334 544.101 58.334C566.997 58.334 567.111 47 590.12 47C613.13 47 613.13 58.334 636.14 58.334C659.149 58.334 659.149 47 682.159 47C705.168 47 705.282 58.334 728.291 58.334C751.301 58.334 751.301 47 774.311 47C797.32 47 797.32 58.334 820.33 58.334C843.34 58.334 843.34 47 866.349 47C889.359 47 889.359 58.334 912.482 58.334C935.605 58.334 935.491 47 958.501 47C981.511 47 981.511 58.334 1004.52 58.334C1027.53 58.334 1027.53 47 1050.54 47C1073.55 47 1073.55 58.334 1096.56 58.334C1119.57 58.334 1119.57 47 1142.58 47C1165.59 47 1165.62 58.334 1188.63 58.334C1211.64 58.334 1211.64 47 1234.65 47C1257.65 47 1257.65 58.334 1280.66 58.334C1303.67 58.334 1303.53 47 1326.6 47C1349.67 47 1349.61 58.334 1372.62 58.334C1395.63 58.334 1395.63 47 1418.64 47C1441.65 47 1441.68 58.334 1464.68 58.334C1487.69 58.334 1487.72 47 1510.7 47C1533.69 47 1533.71 58.334 1556.72 58.334C1579.73 58.334 1579.73 47 1602.77 47C1625.81 47 1625.78 58.334 1648.79 58.334C1671.8 58.334 1671.91 47 1694.81 47C1717.71 47 1717.85 58.334 1740.86 58.334C1763.87 58.334 1763.87 47 1786.9 47C1809.94 47 1809.91 58.334 1832.95 58.334C1855.99 58.334 1856.1 47 1879 47Z" fill="white"/>
</g>
</g>
<defs>
<clipPath id="clip0_73_244">
<rect width="1440" height="72" fill="white"/>
</clipPath>
<clipPath id="clip1_73_244">
<rect width="2117" height="949" fill="white" transform="translate(-238 47)"/>
</clipPath>
</defs>
</svg>
