<svg xmlns="http://www.w3.org/2000/svg" viewBox="0 0 296 485.96">
  <defs>
    <style>
      .cls-1 {
        fill: #fff;
      }

      .cls-2 {
        fill: #fff292;
      }

      .cls-3 {
        fill: #fffbe1;
      }

      .cls-4 {
        fill: #3c5473;
      }

      .cls-5 {
        fill: #0887a0;
      }

      .cls-6 {
        fill: #55b3d9;
      }

      .cls-10, .cls-11, .cls-12, .cls-14, .cls-7 {
        fill: none;
        stroke-linecap: round;
        stroke-miterlimit: 10;
      }

      .cls-7 {
        stroke: #fff;
      }

      .cls-8 {
        fill: #e8a6a3;
      }

      .cls-9 {
        fill: #f7d6d2;
      }

      .cls-10, .cls-11 {
        stroke: #3c5473;
      }

      .cls-10, .cls-12 {
        stroke-width: 2px;
      }

      .cls-11 {
        stroke-width: 1.91px;
      }

      .cls-12, .cls-14 {
        stroke: #e8a6a3;
      }

      .cls-13 {
        fill: #308fbf;
      }
    </style>
  </defs>
  <g id="レイヤー_2" data-name="レイヤー 2">
    <g id="レイヤー_1-2" data-name="レイヤー 1">
      <g>
        <rect class="cls-1" width="296" height="480" rx="30"/>
        <path class="cls-2" d="M296,86.26V456a30,30,0,0,1-30,30H30A30,30,0,0,1,0,456V89.23A283.1,283.1,0,0,1,197.32,49.77q8.72,1.45,17.22,3.42a281.64,281.64,0,0,1,30.82,9.06q6.07,2.16,12,4.59A280.61,280.61,0,0,1,296,86.26Z"/>
        <path class="cls-3" d="M296,136.77V456a30,30,0,0,1-30,30H30A30,30,0,0,1,0,456V139.74a283.1,283.1,0,0,1,197.32-39.46q8.72,1.45,17.22,3.42a281.64,281.64,0,0,1,30.82,9.06q6.07,2.16,12,4.59A280.61,280.61,0,0,1,296,136.77Z"/>
        <path class="cls-4" d="M166.33,142.66s-22.69,4-31.73,11.64,47.92,13.46,68.24,6c0,0,7.75,8.83,8.51,8.83s-2.78-15.06.9-22.29c0,0-7.83,3.82-10,7.63,0,0-14-7.63-23.26-10.24,0,0-.8-14-.2-16.87S168.74,132,166.33,142.66Z"/>
        <path class="cls-5" d="M217.68,355.69S217.46,347,234.84,339c0,0,5.52-13.2,10.33-14.81l2.56,13.52s11.68,1.61,16,8.69c0,0,5.86-10.3,10.55-13.84,0,0-2.07,19.23,1.79,27.32a111.42,111.42,0,0,1-10.24-4.79s-11.85,7.73-16.41,7.73c0,0-.58,8.36,0,9.33a40.59,40.59,0,0,1-11.1-9S226.57,363.1,217.68,355.69Z"/>
        <path class="cls-6" d="M5.24,51.62s16.18-12.2,26.82,0l8.65-8.21S39.6,60,39.82,60.7l-7.53-5.54S26.08,62.7,16.1,60.7,5.24,51.62,5.24,51.62Z"/>
        <path class="cls-4" d="M29.74,80.37s10-7.54,16.59,0l5.35-5.07S51,85.58,51.13,86l-4.66-3.42a10.81,10.81,0,0,1-10,3.42C30.29,84.76,29.74,80.37,29.74,80.37Z"/>
        <path class="cls-5" d="M232.12,208.15s16.18-12.19,26.83,0l8.64-8.2s-1.11,16.63-.89,17.29l-7.53-5.54S253,219.24,243,217.24,232.12,208.15,232.12,208.15Z"/>
        <path class="cls-6" d="M256.63,236.91s10-7.54,16.58,0l5.35-5.07s-.69,10.28-.55,10.69l-4.66-3.43a10.83,10.83,0,0,1-10,3.43C257.17,241.29,256.63,236.91,256.63,236.91Z"/>
        <path class="cls-4" d="M50.94,161.83s-18.32,4.27-28.4,25.34c0,0,6.72,11.77,28.4,20.23,0,0-3-13.82-2.14-17.18,0,0,5.8,7.63,10.08,8.55,0,0-1.53-16.79,0-23.82,0,0-9.47,6.11-10.08,7.94C48.8,182.89,48.5,171.29,50.94,161.83Z"/>
        <path class="cls-6" d="M192,208.51s-14.32,3.34-22.19,19.81c0,0,5.25,9.2,22.19,15.81,0,0-2.39-10.8-1.67-13.43,0,0,4.53,6,7.88,6.68,0,0-1.2-13.12,0-18.61,0,0-7.4,4.77-7.88,6.21A70.17,70.17,0,0,1,192,208.51Z"/>
        <path class="cls-6" d="M212.86,286.74s-6.83,4.09-12.59-1.95-4.66-20.45,1.11-28.43,25.21-6,30.89,3.55,0,13,0,13,5.35-.27,6.57,2.72.95,7.65,10.79,7.32,4.33,11.75,2.7,11.53-3.07-.89-2.07-5.44-1.66-3.21-5.65-2.77-8.54-5.76-8.54-7.76-8.64-1.88-8.64-1.88a21.19,21.19,0,0,0-2.89,1.33s6,1,6.88,5.65.66,9.2,3.32,10.09,7.21,1,9.09,3.77.78,8.75-2.1,9.31-1.33-3.66-1.33-4.43,1.66-4.77-4.88-5.33-7-8.09-6.76-11.3-7-5.43-8-5a24.42,24.42,0,0,0-3.44,2.55s5.37,2.55,5.07,5.54-2.08,9.87,1.14,11.09,6.65.88,8.31,3,1.22,6.29-1.22,7-.11-5.34-3.1-5.93-8.76-1.15-9.31-6,1.88-9.31-.45-10.53S214.35,286.07,212.86,286.74Z"/>
        <path class="cls-6" d="M36.74,251.93a6.24,6.24,0,0,1-7.65-1.18c-3.51-3.68-2.84-12.44.67-17.29s15.33-3.65,18.79,2.15,0,7.92,0,7.92,3.26-.16,4,1.66.57,4.65,6.56,4.45,2.63,7.14,1.64,7-1.86-.54-1.26-3.31-1-2-3.44-1.68-5.19-3.51-5.19-4.72-5.26-1.15-5.26-1.15a12.6,12.6,0,0,0-1.75.81s3.64.61,4.18,3.44.41,5.6,2,6.14,4.39.6,5.53,2.29.47,5.32-1.28,5.66-.81-2.22-.81-2.7,1-2.89-3-3.23-4.25-4.92-4.12-6.88-4.24-3.3-4.85-3a14.89,14.89,0,0,0-2.09,1.55s3.27,1.55,3.08,3.37-1.26,6,.69,6.74,4,.54,5.06,1.82.74,3.83-.74,4.24-.07-3.24-1.89-3.61-5.32-.7-5.66-3.66,1.14-5.67-.27-6.41S37.65,251.52,36.74,251.93Z"/>
        <path class="cls-6" d="M32.65,112.27s32.14-6,52.54-2.22c0,0,8-14.85,8.87-14.41s1.33,15.52,1.33,15.52,12.41,3.77,11.75,4.43l9.53-6.65-1.14,17.86-8.39-7.22-12.2,2.66-4,11.31s-6-9.53-6-10.64C85,122.91,46.39,128.23,32.65,112.27Z"/>
        <g>
          <path class="cls-6" d="M235.2,83.67c-8.65-5.32-24-10.34-34.33-7.57-4.63,1.25-13.37-2.43-16.93-14.21,9.13-14.62,18.09-28.06,20.75-29.1,0,0-37.24-26.93-76.15-5.32-5,2.25-4.32,5.32-4.32,5.32s9.94,54.38,36.58,67.51c0,0,7.93-13.64,17.11-28.65,3.34,3.86,9,8.69,16.67,8.69,12.68,0,26.32-6.65,49.26,13.64C243.84,94,243.84,89,235.2,83.67Z"/>
          <ellipse class="cls-1" cx="133.7" cy="40.69" rx="1.33" ry="2.08" transform="translate(-5.97 45.52) rotate(-18.91)"/>
          <ellipse class="cls-1" cx="139.2" cy="31.42" rx="2.08" ry="1.33"/>
          <path class="cls-7" d="M140.43,42.19s4.66.49,3.82-5.41"/>
        </g>
        <path class="cls-4" d="M80.54,198.88S62,215.31,56.37,339.4l14,2.44h80.8S160,230.15,144.78,205Z"/>
        <path class="cls-4" d="M119.22,403.62c-.26,5.49-8.72,55.25-12.35,76.38-.41,2.39-.76,4.41-1,6H65.32c.35-1.36.8-3.4,1.33-6,4.37-21.18,14-77.71,14-77.71S119.55,396.64,119.22,403.62Z"/>
        <path class="cls-4" d="M170.39,486h-39.9c-.11-1.43-.27-3.46-.46-6-1.57-20.62-5.49-72.82-5.23-78.41.32-7,38.53,2.29,38.53,2.29s4,53,6.39,76.12C170,482.31,170.19,484.33,170.39,486Z"/>
        <path class="cls-6" d="M102.26,406.29s12.64,6,33.92,2.33L125.32,261.5l-16.5,4.34Z"/>
        <path class="cls-8" d="M100.26,251.66v9.84s7.32,12.15,22.95,7.14c6.65-5,8.4-8.16,7.32-19.31Z"/>
        <ellipse class="cls-9" cx="72.8" cy="228.6" rx="11.72" ry="11.21"/>
        <ellipse class="cls-8" cx="72.8" cy="228.6" rx="6.26" ry="5.99"/>
        <ellipse class="cls-9" cx="111.07" cy="221.66" rx="38.27" ry="35.18"/>
        <path class="cls-4" d="M111.07,186.48s-14.52,23.8-38.27,30.91C72.8,217.39,75.32,185.7,111.07,186.48Z"/>
        <path class="cls-4" d="M107.14,189s11,13.3,40.86,22.39c0,0-7.39-27.08-40-25Z"/>
        <line class="cls-10" x1="99.16" y1="204.99" x2="100.26" y2="214.08"/>
        <line class="cls-11" x1="125.32" y1="203.68" x2="126.87" y2="212.17"/>
        <path class="cls-12" d="M99.16,228.05s6.43,9.53,20,7.09S132,221.66,132,221.66"/>
        <path class="cls-5" d="M100.12,260.48s-28.45,7.64-37.43,59.93c-4.33,25.69,16.37,31,16.37,31L68,401.3s10.75,11.64,39.13,19.95l9.14-152.61S101.12,263.61,100.12,260.48Z"/>
        <path class="cls-5" d="M132.29,422.91s14.2,1,39.14-10.64l-7-66.84s24.94-11.3,15.62-42.56-45-46.45-49.38-45.31c0,0-.08,4.16-7.48,11.08Z"/>
        <path class="cls-1" d="M72.8,282.19l32.12-6.95,21.17,11.54,36.36-14.87s6,70.68,6,72.27l-35.95,14.53-30.23-11.95-22,11.95Z"/>
        <path class="cls-6" d="M79.37,287.06l27.7-6,18.27,10,31.37-12.83s5.16,61,5.16,62.35l-31,12.54-26.08-10.31L85.84,353.08Z"/>
        <polygon class="cls-13" points="104.78 342.77 107.08 281.06 125.34 291.02 130.86 353.07 104.78 342.77"/>
        <path class="cls-9" d="M75.32,325.59s5.66-6.1,9.65-5.32-.22,6.65-.89,7.32,1,3.32,3.55,4.43,4.54,15.52-.78,17.29-11.86.29-12.3-8.44S73.85,328.32,75.32,325.59Z"/>
        <path class="cls-14" d="M82.21,335.5s1.59,2.66,6.25,3.07"/>
        <path class="cls-14" d="M82,341.84s1.76,2.56,6.43,2.68"/>
        <path class="cls-9" d="M170.93,322.93s-5.18-6.85-9.74-3.52-5.75,26.34,0,27.89a8.35,8.35,0,0,0,9.74-4.61C171.26,341.3,175.29,326.65,170.93,322.93Z"/>
        <path class="cls-14" d="M160.79,324.48s6.32,1.5,8.81,3.33"/>
        <path class="cls-14" d="M159.62,331.8s8.32,1.75,10,3.29"/>
        <path class="cls-14" d="M159,338.57s6.48.59,8.31,1.65"/>
        <path class="cls-6" d="M89.62,209.53S87,201,86.85,199.34s8.32,5.65,8.32,6.31S90.08,211,89.62,209.53Z"/>
      </g>
    </g>
  </g>
</svg>
