<svg xmlns="http://www.w3.org/2000/svg" viewBox="0 0 297.44 485.96">
  <defs>
    <style>
      .cls-1 {
        fill: #fff;
      }

      .cls-2 {
        fill: #fff292;
      }

      .cls-3 {
        fill: #fffbe1;
      }

      .cls-4 {
        fill: #0887a0;
      }

      .cls-5 {
        fill: #55b3d9;
      }

      .cls-6 {
        fill: #3c5473;
      }

      .cls-7 {
        fill: #f7d6d2;
      }

      .cls-8 {
        fill: #e8a6a3;
      }

      .cls-10, .cls-11, .cls-12, .cls-13, .cls-14, .cls-9 {
        fill: none;
        stroke-linecap: round;
      }

      .cls-10, .cls-12, .cls-9 {
        stroke: #3c5473;
      }

      .cls-10, .cls-11, .cls-14, .cls-9 {
        stroke-miterlimit: 10;
      }

      .cls-14, .cls-9 {
        stroke-width: 2px;
      }

      .cls-11, .cls-13, .cls-14 {
        stroke: #e8a6a3;
      }

      .cls-12, .cls-13 {
        stroke-linejoin: round;
      }
    </style>
  </defs>
  <g id="レイヤー_2" data-name="レイヤー 2">
    <g id="レイヤー_1-2" data-name="レイヤー 1">
      <g>
        <path class="cls-1" d="M296,30V450a30,30,0,0,1-30,30H30A30,30,0,0,1,0,450V30A30,30,0,0,1,30,0H266A30,30,0,0,1,296,30Z"/>
        <path class="cls-2" d="M296,86.26V456a30,30,0,0,1-19,27.92,27.31,27.31,0,0,1-3.24,1.07,29.77,29.77,0,0,1-7.72,1H30A30,30,0,0,1,0,456V89.23C1.94,88,3.9,86.8,5.87,85.64A280.95,280.95,0,0,1,150.41,45.88a282.33,282.33,0,0,1,40.66,2.92c2.09.3,4.18.62,6.25,1q8.72,1.45,17.22,3.42c1,.22,1.93.45,2.88.7Q226,56,234.33,58.57c1.34.41,2.67.84,4,1.28,2.36.76,4.71,1.57,7,2.4q6.07,2.16,12,4.59A280.61,280.61,0,0,1,296,86.26Z"/>
        <path class="cls-3" d="M296,136.77V456a30,30,0,0,1-19,27.92,27.31,27.31,0,0,1-3.24,1.07,29.77,29.77,0,0,1-7.72,1H30A30,30,0,0,1,0,456V139.74A280.19,280.19,0,0,1,51.79,114.1q7.76-2.91,15.72-5.34l.51-.16q4.14-1.26,8.34-2.39a279.72,279.72,0,0,1,48.38-8.67q12.69-1.14,25.67-1.15,13.62,0,26.92,1.27,10.11,1,20,2.62,8.72,1.45,17.22,3.42,10.65,2.47,21,5.76c3.31,1,6.59,2.14,9.85,3.3q5.91,2.1,11.71,4.46l.31.13A280.61,280.61,0,0,1,296,136.77Z"/>
        <path class="cls-4" d="M245.44,202.74s-.16-6.46,12.78-12.45c0,0,4.1-9.82,7.68-11l1.9,10.06s8.7,1.2,11.9,6.47c0,0,4.36-7.67,7.85-10.3,0,0-1.54,14.31,1.33,20.33a82.31,82.31,0,0,1-7.62-3.57S272.45,208,269.05,208c0,0-.44,6.23,0,7a30.38,30.38,0,0,1-8.26-6.71S252.06,208.25,245.44,202.74Z"/>
        <path class="cls-4" d="M179.43,29.15S173,26.5,170,24.72c0,0-11,7.15-15.19,7.15,0,0-.54,7.74,0,8.64a37.66,37.66,0,0,1-10.28-8.35s-10.85,0-19.08-6.85c0,0-.21-8,15.89-15.49A58.51,58.51,0,0,1,146.62,0h5l1.63,8.63s10.82,1.49,14.8,8c0,0,5.42-9.53,9.76-12.81C177.77,3.86,175.85,21.66,179.43,29.15Z"/>
        <path class="cls-5" d="M65.79,28.45s16.19-12.2,26.83,0l8.64-8.2s-1.1,16.62-.88,17.29L92.84,32s-6.21,7.54-16.18,5.55S65.79,28.45,65.79,28.45Z"/>
        <path class="cls-6" d="M98,54.65s10-7.54,16.59,0l5.34-5.07s-.68,10.28-.54,10.69l-4.66-3.42a10.81,10.81,0,0,1-10,3.42C98.5,59,98,54.65,98,54.65Z"/>
        <path class="cls-6" d="M232.89,111.12s16.19-12.19,26.83,0l8.65-8.2s-1.11,16.62-.89,17.29l-7.54-5.54s-6.21,7.53-16.18,5.54S232.89,111.12,232.89,111.12Z"/>
        <path class="cls-5" d="M265.05,137.32s10-7.54,16.59,0l5.35-5.07s-.69,10.28-.55,10.69l-4.66-3.42a10.81,10.81,0,0,1-10,3.42C265.6,141.71,265.05,137.32,265.05,137.32Z"/>
        <path class="cls-5" d="M69.59,81.85s-16.93,4-26.25,23.43c0,0,6.21,10.88,26.25,18.71,0,0-2.82-12.79-2-15.89,0,0,5.36,7.06,9.31,7.9,0,0-1.41-15.52,0-22,0,0-8.75,5.65-9.31,7.34C67.62,101.32,67.34,90.6,69.59,81.85Z"/>
        <path class="cls-6" d="M42.81,88.3C37,87.05,29.05,76.63,29.05,76.63,27.8,81.21,32,100.1,32,100.1A103,103,0,0,1,5.87,85.64,70.4,70.4,0,0,1,0,80.55V61c13.87-19,32-23.2,32-23.2-3.34,12.93-2.92,28.78-2.92,28.78.83-2.5,13.76-10.84,13.76-10.84a62.37,62.37,0,0,0-.91,11.71C41.82,77.4,42.81,88.3,42.81,88.3Z"/>
        <path class="cls-5" d="M135.78,107.8s-10.34-2.13-11.56-12.86,11.34-23.3,23.66-25.75,31,16.47,29.35,30.41-10.31,12.24-10.31,12.24,5.78,4.44,4.68,8.32-5.07,8,5.43,16.33-4.79,14.84-6.31,13.21-2.49-3.53,2.15-6.93.81-4.48-3.69-7.56-4.32-12.9-2.74-14.77-7.51-9.35-7.51-9.35a29.37,29.37,0,0,0-4.05-1.28s5.44,6.19,2.67,11.34-6.59,9.23-4.52,12.4,6.71,7.25,6.47,11.51-6.12,8.91-9.56,6.9,1.51-4.6,2.13-5.33,5.5-3-.87-9.28-.86-13.72,1.92-16.55-3-11.23-4.36-11.69a34.31,34.31,0,0,0-5.59-.61s3.57,7.1.88,9.65-10,7.46-7.59,11.42,6.22,6.66,6.29,10.1-3.72,7-6.79,5.48,4.11-5.11,1.46-8.29-8.2-8.76-4.91-13.83,9.33-7.1,7.87-10.29S137.86,108.48,135.78,107.8Z"/>
        <path class="cls-5" d="M222.92,141.23s7-1.45,7.84-8.73-7.7-15.81-16.06-17.47-21,11.17-19.91,20.63,7,8.31,7,8.31-3.93,3-3.18,5.64,3.44,5.44-3.69,11.08,3.26,10.08,4.29,9,1.69-2.4-1.46-4.7-.55-3,2.5-5.13,2.94-8.75,1.86-10,5.1-6.34,5.1-6.34a20.17,20.17,0,0,1,2.75-.87s-3.69,4.2-1.82,7.7,4.47,6.26,3.07,8.41-4.55,4.92-4.39,7.81,4.15,6.05,6.49,4.69-1-3.13-1.45-3.62-3.73-2.05.59-6.3.58-9.31-1.3-11.23,2-7.62,3-7.93a22.87,22.87,0,0,1,3.79-.42s-2.42,4.82-.6,6.55,6.77,5.06,5.15,7.75-4.22,4.52-4.26,6.85,2.52,4.74,4.61,3.73-2.79-3.48-1-5.64,5.57-5.94,3.34-9.38-6.33-4.82-5.35-7S221.51,141.69,222.92,141.23Z"/>
        <path class="cls-5" d="M226.89,44.71S233.47,39,230,30.77s-17.61-12.18-27.47-9-15.64,24.4-8.82,33.78,12.38,4.64,12.38,4.64-2.37,5.54,0,7.89,6.89,3.72,2.7,13.95,9.46,8.75,9.89,7,.37-3.55-4.35-4.12-2.4-2.89-.4-6.93-2.11-11-4-11.75,1.62-9.77,1.62-9.77A23.79,23.79,0,0,1,214,53.9s-1.41,6.65,2.66,9.24,8.49,4,8.28,7.1-1.89,7.94,0,10.91,8,3.94,9.68,1.1-2.95-2.7-3.69-3-5.19,0-3.13-7S222.81,62,219.67,61.1s-2.41-9.29-1.6-10.18a28.35,28.35,0,0,1,3.78-2.71s.31,6.56,3.27,7.31,10.2,1.33,10.09,5.15-1.78,7.32-.43,9.82,5.5,3.52,7.11,1.2-5-2-4.42-5.38,2.36-9.63-2.06-12-9.59-1.34-9.83-4.22S225.67,46,226.89,44.71Z"/>
        <path class="cls-6" d="M135.46,371.37s-.5,111,1.91,114.59l-39.9,0L93,423.15,83,486l-37.69,0s-2.88-122.23,2-129Z"/>
        <path class="cls-7" d="M28.05,314.61s-22.61,62.3,0,87.57c0,0,11.08,2.66,12.41,0,.89-2.94-.81-8.34-.31-8.67s3.78,2.74,5,2.58,1.71-.67,3-4-5.82-6.82-5.65-11.48,7-46.75,7-46.75l2.82-10Z"/>
        <polygon class="cls-8" points="135.46 323.87 163.28 360.18 179.85 332.57 169.02 316.28 138.79 313.62 135.46 323.87"/>
        <path class="cls-5" d="M71,234.94S42.24,251,28.49,283.8s-13.74,36.47-13.74,36.47l35.91,7.64s-8,39.69-5.76,43.23l45.67,16.41,7.53-12.41,13.31,12.41,30.14-13.74s-2.15-43.46-4.18-45.9l25.91-19.73s-32.36-70-66.51-72.26Z"/>
        <path class="cls-7" d="M296,336.85v22.47c-3.31-1.26-7.9-3.47-7.9-3.47l5.65-20Z"/>
        <path class="cls-7" d="M115,271.21s-7.93-12-5.65-16.16a16.13,16.13,0,0,1,5.65-6s-2-11.48,0-13.58,6.83-3.85,7.67-1.44S124.31,245,124.93,245s5-.81,5.41,1.25,3.75,10.16,3.75,10.16Z"/>
        <path class="cls-5" d="M293.83,467.17A30,30,0,0,1,277,483.88c-28.06.24-110.57-.11-110.57-.11-.23-1.09-.43-2.35-.61-3.77-2.83-21.92-.51-80.59.34-99.41.16-3.73.27-5.9.27-5.9l81.85-3.55a22.49,22.49,0,0,1,5,5.37c12.67,17.48,31.7,66.73,39.38,87.35Z"/>
        <path class="cls-1" d="M167.27,285.79s-19.51-2.21-33.25-31.26L113.4,271.38s7.1,61.19,55.43,51.44C168.83,322.82,180.13,293.33,167.27,285.79Z"/>
        <path class="cls-1" d="M241.69,283.69s51.07,49.55,54.31,50.54h0l-7.4,24.28s-39.74-9.31-43.9-14l-7.81-30.09Z"/>
        <path class="cls-6" d="M188.13,278.42,165.31,284a1,1,0,0,0-.75,1.15c1,5.39,5.86,32.72,4.27,37.71s-8.53,48.4-9.58,55A1,1,0,0,0,160,379c6.29,1.94,47.56,13.4,95.73-3.26a1,1,0,0,0,.63-1.27c-2.47-7.53-19-58.1-18.05-58.92s3.12-25.31,4.84-30.58a1,1,0,0,0-.62-1.26l-24.15-8.35a1,1,0,0,0-.58,0c-2.71.7-23.77,6-28.92,3.24A1,1,0,0,0,188.13,278.42Z"/>
        <path class="cls-8" d="M187.34,269.39V280s6,7.65,16.13,7a22.58,22.58,0,0,0,15.46-7.31V263.38Z"/>
        <path class="cls-6" d="M225.42,197.12s13.52,15.2,11.47,23.67l-6.22,8.46L225.42,204Z"/>
        <ellipse class="cls-6" cx="214.43" cy="191.13" rx="20.4" ry="18.62"/>
        <ellipse class="cls-7" cx="196.5" cy="234.94" rx="40.39" ry="39.1"/>
        <circle class="cls-7" cx="152.41" cy="233.38" r="10.86"/>
        <circle class="cls-8" cx="152.41" cy="233.38" r="6.71"/>
        <circle class="cls-7" cx="241.53" cy="229.25" r="10.86"/>
        <circle class="cls-8" cx="241.53" cy="229.25" r="6.71"/>
        <path class="cls-8" d="M180.69,240.09s30.42-3,33.58-3.62c0,0,6.32,26.77-11.47,28.93S180.69,240.09,180.69,240.09Z"/>
        <line class="cls-9" x1="179.85" y1="218.64" x2="181.35" y2="229.28"/>
        <line class="cls-9" x1="203.47" y1="215.71" x2="205.46" y2="225.86"/>
        <path class="cls-6" d="M176,196.73s-.71,2.84-1.5,6.67a86.67,86.67,0,0,0-2,15s17.64-6.53,42.82-6.86c0,0-.75-16.47-2.58-18.13S183.68,189.25,176,196.73Z"/>
        <path class="cls-6" d="M213.44,199.72s5.32,10,5.49,10.85c0,0,11.8,2.14,14,3.56,0,0-5.29-16.9-22-23.66s-41-1.06-49.48,11.83-7.15,22.86-7.15,22.86l13.63-4.68s2.83-10.82,8-14.1Z"/>
        <path class="cls-6" d="M157.07,243s-9,7.76-1.93,20.4C155.14,263.38,154.68,248.7,157.07,243Z"/>
        <path class="cls-6" d="M236.3,237.25s-5.72,10.46,5.39,19.77C241.69,257,236.08,243.45,236.3,237.25Z"/>
        <path class="cls-1" d="M187.34,280s6.65,6.65,16.13,7l-8.07,17S184.81,286.54,187.34,280Z"/>
        <path class="cls-1" d="M219.13,278.33s-6.07,7.36-15.73,8.76l10.11,16S222.43,284.52,219.13,278.33Z"/>
        <line class="cls-10" x1="120.25" y1="275.87" x2="137.37" y2="260.93"/>
        <line class="cls-10" x1="280.92" y1="356.63" x2="288.1" y2="335.9"/>
        <path class="cls-11" d="M126.15,252.06s-7.21-1-8.09.59-2,5.54,7.31,6.1"/>
        <path class="cls-11" d="M111.85,262.29s4.77,1.78,10.42-3.54"/>
        <line class="cls-11" x1="111.85" y1="254.1" x2="115.51" y2="260.66"/>
        <line class="cls-11" x1="116.51" y1="249.99" x2="118.06" y2="252.65"/>
        <circle class="cls-7" cx="83.6" cy="184.92" r="46.82"/>
        <path class="cls-6" d="M100.83,158.61s-20.4,23.11-38.25,24.74c-5.32,8.29,1.67,36.12-9.19,39.28s-22.17,0-23.72-2.39c0,0,8-3.31,6.87-6.31s-21.28-26.72-6.87-56.43,49-31,63.4-27.71,40,20,41,42.12C134.09,171.91,116.57,178.12,100.83,158.61Z"/>
        <circle class="cls-7" cx="60.14" cy="191.63" r="10.86"/>
        <path class="cls-8" d="M64.07,197.05a6.54,6.54,0,0,1-3.93,1.29,6.71,6.71,0,1,1,0-13.42,6.64,6.64,0,0,1,3.5,1,17.48,17.48,0,0,0-.68,4.93A17.11,17.11,0,0,0,64.07,197.05Z"/>
        <polyline class="cls-12" points="66.93 241.95 84.1 263.38 92.73 248.44 105.7 260.93 102.7 238.96"/>
        <path class="cls-12" d="M90.57,256.6s3.1,21.88,2.66,23.43l11.14-.89L103,268.4"/>
        <ellipse class="cls-12" cx="96.74" cy="260.66" rx="2" ry="2.66" transform="translate(-62.33 32.63) rotate(-14.54)"/>
        <ellipse class="cls-12" cx="98.78" cy="272.02" rx="2" ry="2.66" transform="translate(-65.12 33.5) rotate(-14.54)"/>
        <path class="cls-13" d="M31.71,391.43s1.4,7.7,3.45,9.81"/>
        <path class="cls-13" d="M25.56,392.43s2.39,7,4.65,8.81"/>
        <path class="cls-8" d="M95.39,245.37c-13.47,3.78-26.27-4.85-26.27-4.85l-2.19-11.84a47,47,0,0,0,33.82-.18C101.48,232.78,102.5,243.26,95.39,245.37Z"/>
        <path class="cls-14" d="M84.75,206.38s6.32,8.14,19.62,5"/>
        <line class="cls-9" x1="89.68" y1="172.51" x2="90.57" y2="184.7"/>
        <line class="cls-9" x1="111.41" y1="172.51" x2="112.29" y2="184.7"/>
      </g>
    </g>
  </g>
</svg>
