<svg xmlns="http://www.w3.org/2000/svg" viewBox="0 0 296 480">
  <defs>
    <style>
      .cls-1 {
        fill: #f7e22f;
      }

      .cls-2 {
        fill: #fff292;
      }

      .cls-3 {
        fill: #fffbe1;
      }

      .cls-4 {
        fill: #3c5473;
      }

      .cls-5 {
        fill: #f7d6d2;
      }

      .cls-6 {
        fill: #e8a6a3;
      }

      .cls-7 {
        fill: #0887a0;
      }

      .cls-8 {
        fill: #55b3d9;
      }

      .cls-10, .cls-11, .cls-12, .cls-13, .cls-9 {
        fill: none;
        stroke-linecap: round;
        stroke-miterlimit: 10;
      }

      .cls-11, .cls-9 {
        stroke: #e8a6a3;
      }

      .cls-10, .cls-12, .cls-13 {
        stroke: #3c5473;
      }

      .cls-10 {
        stroke-width: 3px;
      }

      .cls-11, .cls-12 {
        stroke-width: 2px;
      }

      .cls-13 {
        stroke-width: 2.86px;
      }
    </style>
  </defs>
  <g id="レイヤー_2" data-name="レイヤー 2">
    <g id="レイヤー_1-2" data-name="レイヤー 1">
      <g>
        <path class="cls-1" d="M296,30V450a30,30,0,0,1-30,30H30A30,30,0,0,1,0,450V30A30,30,0,0,1,30,0H266A30,30,0,0,1,296,30Z"/>
        <path class="cls-2" d="M296,80.3V450a30,30,0,0,1-30,30H30A30,30,0,0,1,0,450V83.27A283.1,283.1,0,0,1,197.32,43.81q8.72,1.45,17.22,3.42a281.64,281.64,0,0,1,30.82,9.06q6.07,2.16,12,4.59A280.61,280.61,0,0,1,296,80.3Z"/>
        <path class="cls-3" d="M296,130.81V450a30,30,0,0,1-30,30H30A30,30,0,0,1,0,450V133.78A283.1,283.1,0,0,1,197.32,94.32q8.72,1.46,17.22,3.42a281.64,281.64,0,0,1,30.82,9.06q6.07,2.16,12,4.59A280.61,280.61,0,0,1,296,130.81Z"/>
        <path class="cls-4" d="M199.75,230.09s-6.82,3.86-9.95,16.52,11.28,29.79,11.28,29.79l11.09,6.38,24.75-9.22-.18-13.4Z"/>
        <circle class="cls-5" cx="195.73" cy="240.16" r="9.37"/>
        <circle class="cls-6" cx="195.73" cy="240.16" r="5.3"/>
        <path class="cls-4" d="M296,306.51V224.1c-5.84-6.62-14.06-7.82-18.54-7.93a22.61,22.61,0,0,0-3.22.1l-.11.36-1,3.3-.22.76-3.58,12.17-5.43,18.43L261.49,258l-.75,2.07-1.89,5.23-4.09,11.29-.06.17-.94,2.59L293.63,307l2.37,1.63Z"/>
        <circle class="cls-5" cx="277.76" cy="228.73" r="9.37"/>
        <path class="cls-4" d="M296,359.15V450a30,30,0,0,1-22.28,29l-10.59,1H204.78a83.31,83.31,0,0,1-1.11-11.38c-.1-2.32-.18-4.85-.23-7.55-.06-2.93-.08-6.06-.08-9.34,0-13,.44-28.18,1-42.14.08-2.22.17-4.41.26-6.55.08-1.9.16-3.76.23-5.58.35-7.78.69-14.74,1-20.11.37-6.93.62-11.22.62-11.22l1-.07,5.73-.45,16.74-1.3,11.23-.88,28.09-2.19Z"/>
        <path class="cls-7" d="M296,315.43v54.81l-92.71,7.31c-4-6.82,1.68-58.34,5.59-77.54,6.08-29.83,43.41-47.17,67.17-26C285.31,282.21,291.68,298.55,296,315.43Z"/>
        <path class="cls-6" d="M231.84,264.9l1,7.07s8.64,11.69,25.27,3.35c8.65-5.55,3.16-17.82,3.16-17.82Z"/>
        <ellipse class="cls-5" cx="236.92" cy="230.09" rx="39.63" ry="37.94" transform="translate(-34.71 42.24) rotate(-9.5)"/>
        <path class="cls-8" d="M296,306.51a132.42,132.42,0,0,0-12.42-23.2,52.94,52.94,0,0,0-11.51-12.44,25.87,25.87,0,0,0-9.08-4.46l0,0h0c-.28.52-4.38,7.86-8.21,10.19a4.79,4.79,0,0,1-.9.46,2.68,2.68,0,0,1-.43.14l-.21.06,15.93,83.95,2.08,10.95,6.53,34.43,18.24-4.9V306.51Z"/>
        <path class="cls-8" d="M239.84,277l1.89,133.78s-31.94,1.21-39.79-1.89c0,0-24.3-106.65,29.9-139.59C231.84,269.32,231.87,274.42,239.84,277Z"/>
        <g>
          <path class="cls-5" d="M224.38,351.8s16.48,40.38,25.75,45.7c10.34,5.94,2.38,23.23-4.2,20.91a24.5,24.5,0,0,1-9.9-6.16l5.3,9.14s-4.11,3.3-7,2.64-15.13-21.4-24-46.33a95.46,95.46,0,0,1-3.94-17.62Z"/>
          <path class="cls-9" d="M244.4,410.05s4.71,3.19,6.61,3.74"/>
          <path class="cls-9" d="M246.52,406.62s5.27,2.15,7.24,2.29"/>
          <path class="cls-9" d="M247.7,402.62s4.1,1.25,6.06,1"/>
        </g>
        <path class="cls-6" d="M140.7,316.11s19.38,24.88,19.16,28l21.35-28-37.38-21.55Z"/>
        <path class="cls-5" d="M170.42,452.32c-.4,1.92-1,4.1-1.63,6.37-.58,2-1.24,4.13-1.93,6.19-2.18,6.58-4.56,12.81-5.47,15.12H133.13c3.1-3.63,6.41-14,8.51-21.52.49-1.75.92-3.34,1.26-4.65.59-2.27.93-3.71.93-3.71Z"/>
        <path class="cls-5" d="M211.91,455.37s-.32,2.31-.79,5.78c-.27,2-.59,4.48-.93,7.09-.49,3.8-1,8-1.45,11.76H182.93c.42-3.13,1-7.55,1.62-12.31.31-2.42.63-4.92.94-7.39.56-4.37,1.09-8.63,1.5-12.1.15-1.2.27-2.31.38-3.29l9.43,4,6.56,2.8Z"/>
        <path class="cls-6" d="M143.83,450.12l26.59,2.2a122.71,122.71,0,0,1-3.56,12.56c-10.68-2.14-19.78-4.73-25.22-6.4C143,453.72,143.83,450.12,143.83,450.12Z"/>
        <path class="cls-6" d="M211.91,455.37s-.81,5.83-1.72,12.87a127.54,127.54,0,0,1-25.64-.55c.86-6.69,1.8-14.06,2.44-19.49l9.81.73Z"/>
        <path class="cls-8" d="M152.81,393.67,138,452.32s24.65,9.25,77,8.81c0,0-2.2-62.09-4.43-63S152.81,393.67,152.81,393.67Z"/>
        <circle class="cls-4" cx="208.88" cy="306.08" r="6.08"/>
        <circle class="cls-4" cx="215.63" cy="314.16" r="5.48"/>
        <circle class="cls-4" cx="224.43" cy="316.41" r="4.43"/>
        <path class="cls-4" d="M227.59,315.53c2.09.2,4.32-1.64,6.07-3.9l1.27,5.7s-4,2-6.94-.26S227.59,315.53,227.59,315.53Z"/>
        <path class="cls-7" d="M173.07,306.22s-13.54,3.53-23.45,18.4-13.38,25.54-13.38,25.54l21.63,10-9,39.14s42.36,6.27,64.82,3l-3.16-36.16,20.23-3.64s-17.23-49-39.2-53.75Z"/>
        <path class="cls-6" d="M170.43,305.42l1.9,11s8.88,5.2,18.35,1.75l3.53-12.74Z"/>
        <path class="cls-4" d="M117.32,480H78c-3.77-24.62-7.25-58.64-7.25-58.64-3.6,3-9.24,35.14-13,58.64H30a29.75,29.75,0,0,1-17.43-5.6c1.18-17.77,3.51-40.32,5.73-59.8,2.72-24.05,5.28-43.44,5.28-43.44h91.16c-.17,1.32-.24,4.42-.23,8.81s.09,10.35.23,17.08c0,1.93.09,3.94.13,6,0,1.5.08,3,.12,4.58,0,1.73.09,3.49.14,5.27s.09,3.52.14,5.32C115.87,439.1,116.69,462.71,117.32,480Z"/>
        <path class="cls-8" d="M68.7,242.15S33,270.31,16.52,310.61L42.61,337S33.08,361.47,31.41,380h85.51l8.59-76s16.51,15.86,15.85,17.84l24.44-35.67s-43.59-41.4-63.41-37.88A48,48,0,0,1,68.7,242.15Z"/>
        <path class="cls-5" d="M25.93,311.06S0,365.76,0,401.43C0,416.3,17.51,415,20.48,414.31s1.32-8.58,3.63-11.23a49.14,49.14,0,0,0,3.31,5.62c1.1,1.32,6.95-5.43,6.73-6.75s-5.3-6.79-4.86-10.32S36.55,346.06,44,334.39Z"/>
        <path class="cls-4" d="M36.45,180.7s-8.76,4.62-6.55,17.83,13.43,24.88,13.21,32.37,9.25,16.29,15.85,7.71S36.45,180.7,36.45,180.7Z"/>
        <path class="cls-6" d="M102.39,238.61l-30.06,6.08c8.26,20.62,30.06,11.09,30.06,11.09V238.61Z"/>
        <ellipse class="cls-5" cx="82.32" cy="202.19" rx="43.18" ry="43.68"/>
        <path class="cls-6" d="M72.33,213.67,105.86,211s-2.65,23.61-16.76,22.13S72.33,213.67,72.33,213.67Z"/>
        <line class="cls-10" x1="105.03" y1="187.91" x2="105.86" y2="199.8"/>
        <line class="cls-10" x1="79.76" y1="187.91" x2="81.25" y2="199.8"/>
        <circle class="cls-5" cx="38.52" cy="206.94" r="12.59"/>
        <circle class="cls-6" cx="38.52" cy="206.94" r="7.12"/>
        <path class="cls-4" d="M61.1,176.19S101.73,184,111,180.7s9.45-4.76,11.89-14.31c3.17-12.45-12-17.95-31.71-20.26-18.83-2.2-36,11.6-40,10.92S27.42,161,29.73,177.65s13.87,14.06,17.5,13.07S60.11,183.12,61.1,176.19Z"/>
        <path class="cls-4" d="M50.48,189.19s6.78,22.55-4.67,36.31c0,0-13.66-14.73-5-40.73S50.48,189.19,50.48,189.19Z"/>
        <g>
          <path class="cls-5" d="M139.81,351.8s-16.49,40.38-25.75,45.7c-10.35,5.94-2.39,23.23,4.2,20.91a24.41,24.41,0,0,0,9.89-6.16l-5.3,9.14s4.12,3.3,7,2.64,15.13-21.4,24-46.33a95,95,0,0,0,3.95-17.62Z"/>
          <path class="cls-9" d="M119.78,410.05s-4.71,3.19-6.6,3.74"/>
          <path class="cls-9" d="M117.66,406.62s-5.27,2.15-7.24,2.29"/>
          <path class="cls-9" d="M116.48,402.62s-4.1,1.25-6.06,1"/>
        </g>
        <path class="cls-11" d="M250.35,242.49c0,5.71-6.26,10.35-14,10.35-5.79,0-10.76-2.61-12.88-6.32"/>
        <line class="cls-12" x1="223.49" y1="219.7" x2="223.49" y2="228.73"/>
        <line class="cls-12" x1="246.17" y1="218.16" x2="246.17" y2="227.08"/>
        <path class="cls-4" d="M264.55,220.41s-21.46.17-30.88-14.53a51.73,51.73,0,0,1-25.81,19.65s-1.93,14.7-10.35,15.69c0,0-14.37-45.41,38.47-53.5,17.84,0,39.47,10.35,41.78,30.44C277.76,218.16,277.76,220.41,264.55,220.41Z"/>
        <path class="cls-4" d="M113.09,31.71s-35,6.19-48.94,18S138.06,70.42,169.4,59c0,0,11.94,13.63,13.12,13.63s-4.29-23.23,1.39-34.38c0,0-12.08,5.89-15.43,11.77,0,0-21.63-11.77-35.88-15.79,0,0-1.24-21.68-.31-26S116.8,15.29,113.09,31.71Z"/>
        <path class="cls-7" d="M164.89,131.35s-.3-12,23.65-23.06c0,0,7.59-18.18,14.22-20.39l3.53,18.62s16.1,2.22,22,12c0,0,8.08-14.19,14.54-19.07,0,0-2.85,26.5,2.47,37.64a153.38,153.38,0,0,1-14.11-6.6s-16.32,10.64-22.61,10.64c0,0-.8,11.53,0,12.86,0,0-9.22-4.88-15.29-12.41C193.3,141.55,177.14,141.55,164.89,131.35Z"/>
        <path class="cls-8" d="M204.81,64.39s16.18-12.2,26.82,0l8.65-8.21s-1.11,16.63-.89,17.29l-7.54-5.54s-6.21,7.54-16.18,5.54S204.81,64.39,204.81,64.39Z"/>
        <path class="cls-4" d="M241.94,28s10.79-8.12,17.88,0l5.76-5.46s-.74,11.08-.59,11.52l-5-3.69a11.67,11.67,0,0,1-10.79,3.69C242.53,32.74,241.94,28,241.94,28Z"/>
        <path class="cls-8" d="M258.43,142s-13.3,3.1-20.61,18.4c0,0,4.87,8.55,20.61,14.69,0,0-2.21-10-1.55-12.47,0,0,4.21,5.54,7.32,6.2,0,0-1.11-12.19,0-17.29,0,0-6.88,4.44-7.32,5.77A65.4,65.4,0,0,1,258.43,142Z"/>
        <path class="cls-8" d="M156.25,195s-6.82,4.1-12.59-1.94-4.65-20.45,1.11-28.43,25.21-6,30.89,3.55,0,13,0,13,5.36-.26,6.58,2.73.94,7.65,10.78,7.31,4.33,11.75,2.71,11.53-3.07-.88-2.08-5.43-1.66-3.21-5.65-2.77-8.53-5.76-8.53-7.76-8.65-1.88-8.65-1.88a19.51,19.51,0,0,0-2.88,1.33s6,1,6.87,5.65.66,9.2,3.33,10.09,7.2,1,9.08,3.77.78,8.75-2.1,9.31-1.33-3.66-1.33-4.44,1.66-4.76-4.88-5.32-7-8.09-6.76-11.3-7-5.44-8-5a24.42,24.42,0,0,0-3.44,2.55s5.37,2.55,5.07,5.54-2.08,9.87,1.14,11.08,6.65.89,8.31,3,1.22,6.29-1.22,7-.11-5.34-3.1-5.93-8.76-1.15-9.31-6,1.88-9.31-.44-10.53S157.74,194.34,156.25,195Z"/>
        <circle class="cls-4" cx="154.95" cy="300.14" r="6.08"/>
        <circle class="cls-4" cx="148.21" cy="308.22" r="5.48"/>
        <circle class="cls-4" cx="139.41" cy="310.47" r="4.43"/>
        <path class="cls-4" d="M136.24,310.22c0-.22-3.36-2.54-5.1-4.8l-1.27,5.7s4,2,6.94-.26S136.24,310.22,136.24,310.22Z"/>
        <circle class="cls-5" cx="215.81" cy="284.69" r="9.37"/>
        <circle class="cls-6" cx="215.81" cy="284.69" r="5.3"/>
        <path class="cls-12" d="M65,294.56s-15.2,23.32-19.81,36.68"/>
        <circle class="cls-5" cx="184.52" cy="279.05" r="31.71"/>
        <path class="cls-6" d="M163.6,282.78,188,289s-4.14,17.3-16.95,11.45C161,295.77,163.6,282.78,163.6,282.78Z"/>
        <line class="cls-13" x1="168.44" y1="273.98" x2="170.43" y2="265.33"/>
        <line class="cls-13" x1="190.68" y1="269.77" x2="188.92" y2="278.19"/>
        <path class="cls-4" d="M205.65,259.55s-2.53,11.23-2.53,11.67-39-9.91-39-9.91,4.95-11,7.93-12.11,12.11-4.38,21.57-1.86,14.21,7.59,14.21,7.59Z"/>
        <path class="cls-4" d="M203.29,260.71s2.92,8.86,7.32,11.72a58.79,58.79,0,0,0,7.15,4s-1.67-15.26-11.62-23Z"/>
        <path class="cls-4" d="M170.34,253.26s-5.82,7-12.47,5.56c0,0,5.84-11.79,25.49-12.39C195.78,246.05,170.34,253.26,170.34,253.26Z"/>
      </g>
    </g>
  </g>
</svg>
