<svg xmlns="http://www.w3.org/2000/svg" viewBox="0 0 296 482.24">
  <defs>
    <style>
      .cls-1 {
        fill: #f7e22f;
      }

      .cls-2 {
        fill: #fff292;
      }

      .cls-3 {
        fill: #fffbe1;
      }

      .cls-4 {
        fill: #f7d6d2;
      }

      .cls-5 {
        fill: #e8a6a3;
      }

      .cls-6 {
        fill: #3c5473;
      }

      .cls-7 {
        fill: #fff;
      }

      .cls-8 {
        fill: #55b3d9;
      }

      .cls-9 {
        fill: #0887a0;
      }

      .cls-10, .cls-11, .cls-12, .cls-13, .cls-14, .cls-15 {
        fill: none;
        stroke-linecap: round;
      }

      .cls-10, .cls-15 {
        stroke: #fff;
      }

      .cls-10, .cls-11, .cls-12, .cls-14 {
        stroke-miterlimit: 10;
      }

      .cls-10 {
        stroke-width: 1.26px;
      }

      .cls-11, .cls-13 {
        stroke: #3c5473;
      }

      .cls-11, .cls-12 {
        stroke-width: 2px;
      }

      .cls-12, .cls-14 {
        stroke: #e8a6a3;
      }

      .cls-13, .cls-15 {
        stroke-linejoin: round;
      }
    </style>
  </defs>
  <g id="レイヤー_2" data-name="レイヤー 2">
    <g id="レイヤー_1-2" data-name="レイヤー 1">
      <g>
        <rect class="cls-1" width="296" height="480" rx="30"/>
        <path class="cls-2" d="M296,82v369.7a30,30,0,0,1-30,30H30a30,30,0,0,1-30-30V85A283.1,283.1,0,0,1,197.32,45.55Q206,47,214.54,49A281.64,281.64,0,0,1,245.36,58q6.07,2.16,12,4.59A280.61,280.61,0,0,1,296,82Z"/>
        <path class="cls-3" d="M296,132.55V451.74a30,30,0,0,1-30,30H30a30,30,0,0,1-30-30V135.52A283.1,283.1,0,0,1,197.32,96.06q8.72,1.45,17.22,3.42a281.64,281.64,0,0,1,30.82,9.06q6.07,2.16,12,4.59A280.61,280.61,0,0,1,296,132.55Z"/>
        <path class="cls-4" d="M296,333.24v-7.08l-45.74-41.57-11.09,18.29c1.78,3.71,56.83,61,56.83,61V333.24Z"/>
        <path class="cls-5" d="M159.92,286.53s-35.32,60.19-9,89.46c19.27,11,22.3-14.63,22.3-14.63s-2-40,2.32-55.76Z"/>
        <polygon class="cls-6" points="266 481.74 153.22 481.74 153.45 480 154.93 468.77 157.25 452.82 174.44 334.62 238.06 334.62 265.67 480 266 481.74"/>
        <path class="cls-7" d="M192.51,255.15s-27.61,15.2-37.58,35.37l20.59,15.08s-6,33.36-6.51,34.31,72-3.86,72-3.86l-3.81-26.46,15.74-23.5s-22.15-25.17-36.24-30C216.68,256.1,200.38,258.8,192.51,255.15Z"/>
        <path class="cls-6" d="M156.6,199.77s-10.15,35.88-3.35,65.81c0,0,19.14-5.26,22.46-6.95l-2.66-10.34s4.49,8.65,6,8.81l16.46-4.32L182.7,190.6Z"/>
        <path class="cls-5" d="M218.32,247.29v12.86s-7.75,7.26-20.49,3.85c-9-2.74-7.42-5.37-7.42-5.37l-.11-9.12Z"/>
        <path class="cls-6" d="M216.68,176s26.7,17.24,35.18,55.64L236.73,240l-4.32-4.33.33,5.33-9,4.65Z"/>
        <path class="cls-6" d="M42.75,206.8s-23.5,18-10.86,38.72c0,0-15.3,5.76-16,22.72,0,0,3.65,27-9,29.28,0,0,10.9,8.4,32.22,13.67s88.82-3.37,98.13-6,18.63-16.63,16.3-27.27S143.29,262.48,142,262.37c0,0,15-20.06-9-33.37,0,0,8.31-17.95-10-24.6Z"/>
        <path class="cls-4" d="M139.3,290.52s33.92,34.92,40.57,67.84c2.33,14.3-17.29,21.68-20.29,20.15S155.32,365,154,364s-5.25.66-6-7.32-12.49-44.83-21.57-49.52Z"/>
        <path class="cls-4" d="M29.64,318.79S4,374.82,2.29,377.7c-1.15,2,10,9.93,17.63,9.26a88.92,88.92,0,0,0,6.31-9.26l-1,9.29h6.32s17.71-60,18.54-64.76Z"/>
        <path class="cls-8" d="M165.48,481.74H30c-.09-.52-.17-1.11-.22-1.75-2.33-26.7,25.1-153.33,25.1-153.33s53.49-13.74,59.7-8.87c4.47,3.52,29.2,88,42.67,135,3.56,12.41,6.33,22.2,7.74,27.18Z"/>
        <path class="cls-7" d="M64.48,255.15s-12.13,7.93-25.31,30-19.25,33.35-19.25,33.35,22.61,10.31,27.26,10.64,46.89,4,67.51-6.32,29.93-35.25,29.93-35.25-27.93-30.59-42.9-31.26Z"/>
        <path class="cls-8" d="M61.82,256.27,52.51,264l4.65,15.22s-7.65,44.27-7,45.59A37.06,37.06,0,0,0,54.45,330c9,8.17,42.23,2.38,59.24-5.33,2.16-.23,5.21-6.1,5.21-6.1l-17-39.13,4-23.17s-5.65-2.1-8-1.88l-5.05,20.17L67.3,276.78Z"/>
        <path class="cls-5" d="M67.3,256.27s8.51,12.47,13.15,15.47c0,0,14.62-10.92,15.78-13.11Z"/>
        <path class="cls-6" d="M197.42,83.09s-27.88,4-39,11.64,58.89,13.46,83.86,6c0,0,9.52,8.83,10.46,8.83s-3.43-15.06,1.1-22.29c0,0-9.62,3.82-12.3,7.63,0,0-17.23-7.63-28.58-10.24,0,0-1-14-.25-16.87S200.38,72.44,197.42,83.09Z"/>
        <path class="cls-9" d="M50.37,34.46s16.18-12.2,26.82,0l8.65-8.2S84.73,42.88,85,43.55L77.41,38s-6.2,7.54-16.18,5.55S50.37,34.46,50.37,34.46Z"/>
        <path class="cls-8" d="M80.22,58.14s10-7.54,16.58,0l5.35-5.07s-.69,10.28-.55,10.69l-4.66-3.42a10.8,10.8,0,0,1-10,3.42C80.77,62.53,80.22,58.14,80.22,58.14Z"/>
        <path class="cls-8" d="M261.71,30.4s-18.9-.12-32,14.19c0,0,5,10.29,25.44,20.83,0,0-1.07-11.19.33-13.6,0,0,4.69,7,8.82,8.44,0,0,.89-13.18,3.42-18.29,0,0-10.32,2.93-11.19,4.22C256.56,46.19,257.91,37.22,261.71,30.4Z"/>
        <path class="cls-8" d="M235.7,176.63s-6.82,4.09-12.59-1.95-4.65-20.44,1.11-28.42,25.21-6,30.9,3.54,0,13,0,13,5.35-.27,6.57,2.72.94,7.65,10.78,7.32,4.34,11.75,2.71,11.53-3.07-.89-2.07-5.43-1.67-3.22-5.66-2.77-8.53-5.77-8.53-7.76-8.65-1.89-8.65-1.89a20.61,20.61,0,0,0-2.88,1.33s6,1,6.87,5.66.67,9.2,3.33,10.08,7.2,1,9.09,3.77.77,8.76-2.11,9.31-1.33-3.66-1.33-4.43,1.66-4.77-4.88-5.32-7-8.09-6.76-11.31-7-5.43-8-5a25.25,25.25,0,0,0-3.44,2.55s5.38,2.55,5.07,5.55-2.07,9.86,1.14,11.08,6.65.89,8.32,3,1.21,6.3-1.22,7-.11-5.33-3.11-5.93-8.75-1.15-9.31-6,1.89-9.31-.44-10.53S237.19,176,235.7,176.63Z"/>
        <g>
          <path class="cls-8" d="M192.4,133.33c-12.8-.69-32.88,3-42.65,12.29-4.39,4.17-16.31,5.35-27.36-5.58,1.34-21.73,3.18-42,5.51-44.79,0,0-57.55-7.46-87.71,40-4.18,5.5-1.59,8.51-1.59,8.51s43.78,54.36,81.25,52.88c0,0,.59-19.91,1.73-42.1,6,2.27,15.28,4.2,23.74-.39,14.08-7.64,25.2-23.23,62.88-14.54C208.2,139.57,205.2,134,192.4,133.33Z"/>
          <ellipse class="cls-7" cx="53.87" cy="146.78" rx="1.68" ry="2.62" transform="matrix(0.68, -0.74, 0.74, 0.68, -90.63, 87.08)"/>
          <ellipse class="cls-7" cx="54.39" cy="133.18" rx="2.62" ry="1.68" transform="translate(-56.94 42.08) rotate(-28.49)"/>
          <path class="cls-10" d="M62.25,144.38s5.46-2.25,1-8.3"/>
        </g>
        <ellipse class="cls-4" cx="82.88" cy="224.76" rx="40.13" ry="37.61"/>
        <line class="cls-11" x1="73.95" y1="213.04" x2="75.12" y2="224.76"/>
        <line class="cls-11" x1="98.56" y1="224.76" x2="97.9" y2="213.04"/>
        <path class="cls-12" d="M74,239.31s12,12.17,25.55,2.43"/>
        <circle class="cls-4" cx="45.21" cy="232.07" r="9.67"/>
        <path class="cls-5" d="M49.67,236.11a6,6,0,0,1-10.5-4,6,6,0,0,1,6-6,5.82,5.82,0,0,1,2,.34,13.73,13.73,0,0,0-.14,1.94A12.38,12.38,0,0,0,49.67,236.11Z"/>
        <circle class="cls-4" cx="162.64" cy="224.6" r="9.67"/>
        <path class="cls-5" d="M167.1,228.64a6,6,0,0,1-10.5-4,6,6,0,0,1,6-6,5.82,5.82,0,0,1,2,.34,13.73,13.73,0,0,0-.14,1.94A12.38,12.38,0,0,0,167.1,228.64Z"/>
        <circle class="cls-4" cx="234.96" cy="195.46" r="9.67"/>
        <path class="cls-5" d="M230.12,191.86a6,6,0,1,1,5.41,9.6,5.74,5.74,0,0,1-2-.14,12.77,12.77,0,0,0,0-1.95A12.36,12.36,0,0,0,230.12,191.86Z"/>
        <path class="cls-6" d="M75.22,195.92s-19.79,23.27-35.58,23.94c0,0-9.7-9.31.72-29.6s34-17.79,34-17.79,16.79-6.15,34.08,7.15,18,30.76,18,30.76S94.51,220,75.22,195.92Z"/>
        <path class="cls-13" d="M56.72,329.54s26.6,7.32,58-6.76"/>
        <path class="cls-13" d="M82.27,331.44s-9.37,6.3-4.71,8.85S82.27,331.44,82.27,331.44Z"/>
        <path class="cls-13" d="M82.88,331.44s11,2.58,7.53,6.61S82.88,331.44,82.88,331.44Z"/>
        <path class="cls-13" d="M82.16,333.5s-1.47,11-.56,12.81"/>
        <path class="cls-13" d="M83.79,333.5s4.46,10,5,11.48"/>
        <path class="cls-14" d="M20.58,377.26s-4.71,8.15-5.1,8.37"/>
        <path class="cls-14" d="M14.43,374.49s-3.6,8.7-4.32,9"/>
        <path class="cls-14" d="M8.55,372.05s-3.15,7.71-3.82,7.87"/>
        <path class="cls-14" d="M161.58,363.13s3.42,11.27,3.1,13.08"/>
        <path class="cls-14" d="M169,361.36s2.15,9.22,2.32,11.19"/>
        <path class="cls-14" d="M174.44,358.47s2.58,6.32,2.1,9.2"/>
        <circle class="cls-4" cx="201.64" cy="216.6" r="37.53"/>
        <path class="cls-5" d="M192.51,225.46,224,214.82s4.76,21.61-6,26.27S194.72,237.65,192.51,225.46Z"/>
        <path class="cls-11" d="M184.41,214.82s-1.11-4.88,4.1-8.32,9.32,1.78,9.32,1.78"/>
        <path class="cls-11" d="M212.9,202.84s-.55-5.65,3.55-6.42a7.46,7.46,0,0,1,7.31,2.77"/>
        <path class="cls-6" d="M171.55,208.72l17.3-8.31.5-15.8,10,11.66s25.94-9.33,27.44-10.33-14-18.47-33.59-14.89-28.27,13.56-33.09,20.88S154,212.88,154,212.88Z"/>
        <path class="cls-13" d="M228.53,276.21s7,14.23,7,26.8"/>
        <path class="cls-8" d="M184.48,258.39l-4.74,3.36a1.13,1.13,0,0,0-.3,1.52l23.14,36.86a1.09,1.09,0,0,1,.16.79c-.41,2.28-2.15,13.35,1.57,17.37,4.16,4.49,27.77,17.37,29.26,16.91s6.86-8.26,7.42-10.92c.49-2.29.14-9.61,0-11.62a1.15,1.15,0,0,0-.44-.84l-31.7-24.37a1.14,1.14,0,0,1-.19-.19L186,258.61A1.13,1.13,0,0,0,184.48,258.39Z"/>
        <path class="cls-13" d="M211.29,297.59s-5.73,14.55-1,17.54,21.7,12.91,25.31,13"/>
        <path class="cls-15" d="M213.43,481.74c0-.56,0-1.14.08-1.74,1.15-29.25,3.17-101,3.17-101"/>
      </g>
    </g>
  </g>
</svg>
