<svg width="48" height="48" viewBox="0 0 48 48" fill="none" xmlns="http://www.w3.org/2000/svg">
<path d="M45.9544 17.0062L41.8172 12.8691C41.4834 12.5398 41.0383 12.3475 40.5698 12.3301C40.1012 12.3128 39.6432 12.4716 39.2859 12.7753C38.7344 13.2448 38.0267 13.4899 37.3029 13.4621C36.5792 13.4343 35.8923 13.1356 35.3784 12.6253C34.8684 12.1115 34.5699 11.4248 34.5421 10.7013C34.5143 9.97776 34.7593 9.27021 35.2284 8.71875C35.5321 8.36151 35.691 7.90346 35.6736 7.4349C35.6563 6.96634 35.464 6.52129 35.1347 6.1875L30.9937 2.04562C30.6438 1.69635 30.1696 1.50018 29.6752 1.50018C29.1807 1.50018 28.7065 1.69635 28.3566 2.04562L21.7612 8.64C21.3541 9.04871 21.0471 9.54605 20.8641 10.0931C20.8284 10.1983 20.7691 10.2939 20.6905 10.3724C20.612 10.4509 20.5164 10.5103 20.4112 10.5459C19.8639 10.7289 19.3665 11.0363 18.9581 11.4441L2.04562 28.3566C1.69635 28.7065 1.50018 29.1807 1.50018 29.6752C1.50018 30.1696 1.69635 30.6438 2.04562 30.9937L6.1875 35.1309C6.52129 35.4602 6.96634 35.6525 7.4349 35.6699C7.90346 35.6872 8.36151 35.5284 8.71875 35.2247C9.26895 34.7514 9.97767 34.5036 10.7029 34.5308C11.4281 34.5581 12.1162 34.8584 12.6294 35.3715C13.1426 35.8847 13.4429 36.5728 13.4701 37.298C13.4973 38.0233 13.2495 38.732 12.7762 39.2822C12.4725 39.6394 12.3137 40.0975 12.3311 40.566C12.3484 41.0346 12.5407 41.4796 12.87 41.8134L17.0072 45.9506C17.3571 46.2999 17.8314 46.4961 18.3258 46.4961C18.8202 46.4961 19.2944 46.2999 19.6444 45.9506L36.5569 29.0381C36.9645 28.63 37.2719 28.1329 37.455 27.5859C37.4905 27.4804 37.5499 27.3845 37.6286 27.3058C37.7073 27.2271 37.8032 27.1676 37.9087 27.1322C38.4556 26.9492 38.9526 26.6421 39.3609 26.235L45.9553 19.6397C46.3033 19.2898 46.4986 18.8163 46.4984 18.3228C46.4982 17.8293 46.3026 17.3559 45.9544 17.0062ZM24.5447 14.2266C24.4054 14.3659 24.24 14.4764 24.058 14.5518C23.876 14.6272 23.6809 14.666 23.4839 14.666C23.2869 14.666 23.0918 14.6272 22.9098 14.5518C22.7278 14.4764 22.5624 14.3659 22.4231 14.2266L21.3441 13.1475C21.0696 12.8648 20.9174 12.4854 20.9204 12.0914C20.9233 11.6974 21.0812 11.3204 21.3599 11.0418C21.6386 10.7632 22.0157 10.6055 22.4097 10.6027C22.8037 10.5999 23.183 10.7523 23.4656 11.0269L24.5447 12.105C24.684 12.2443 24.7945 12.4097 24.8699 12.5917C24.9453 12.7737 24.9841 12.9688 24.9841 13.1658C24.9841 13.3628 24.9453 13.5579 24.8699 13.7399C24.7945 13.9219 24.684 14.0873 24.5447 14.2266ZM28.6697 18.3516C28.3884 18.6327 28.007 18.7906 27.6094 18.7906C27.2117 18.7906 26.8303 18.6327 26.5491 18.3516L25.5178 17.3203C25.2365 17.039 25.0784 16.6574 25.0784 16.2595C25.0784 15.8617 25.2365 15.4801 25.5178 15.1987C25.7991 14.9174 26.1807 14.7594 26.5786 14.7594C26.9765 14.7594 27.358 14.9174 27.6394 15.1987L28.6706 16.23C28.8104 16.3693 28.9214 16.5348 28.9971 16.717C29.0728 16.8993 29.1119 17.0946 29.112 17.292C29.112 17.4893 29.0732 17.6848 28.9976 17.8671C28.922 18.0494 28.8112 18.215 28.6716 18.3544L28.6697 18.3516ZM32.7947 22.4766C32.6554 22.6159 32.49 22.7264 32.308 22.8018C32.126 22.8772 31.9309 22.916 31.7339 22.916C31.5369 22.916 31.3418 22.8772 31.1598 22.8018C30.9778 22.7264 30.8124 22.6159 30.6731 22.4766L29.6419 21.4453C29.3674 21.1626 29.2152 20.7832 29.2182 20.3892C29.2212 19.9952 29.379 19.6182 29.6577 19.3396C29.9364 19.061 30.3135 18.9033 30.7075 18.9005C31.1015 18.8977 31.4808 19.0501 31.7634 19.3247L32.7947 20.3559C32.9349 20.495 33.0462 20.6604 33.1224 20.8425C33.1985 21.0247 33.2379 21.2202 33.2384 21.4176C33.2388 21.6151 33.2002 21.8107 33.1249 21.9932C33.0496 22.1757 32.9389 22.3416 32.7994 22.4812L32.7947 22.4766ZM36.96 26.6522C36.8207 26.7915 36.6553 26.902 36.4733 26.9774C36.2913 27.0528 36.0962 27.0916 35.8992 27.0916C35.7022 27.0916 35.5071 27.0528 35.3251 26.9774C35.1431 26.902 34.9777 26.7915 34.8384 26.6522L33.7659 25.5741C33.6237 25.4352 33.5105 25.2694 33.4328 25.0864C33.3552 24.9034 33.3148 24.7067 33.3138 24.5079C33.3129 24.3091 33.3515 24.1121 33.4273 23.9284C33.5032 23.7446 33.6148 23.5778 33.7557 23.4375C33.8966 23.2973 34.064 23.1865 34.2482 23.1115C34.4323 23.0365 34.6295 22.9989 34.8283 23.0008C35.0271 23.0028 35.2235 23.0442 35.4061 23.1227C35.5888 23.2012 35.754 23.3152 35.8922 23.4581L36.9656 24.5353C37.1049 24.6747 37.2153 24.8401 37.2906 25.0221C37.366 25.2042 37.4047 25.3993 37.4046 25.5963C37.4045 25.7933 37.3656 25.9884 37.2901 26.1703C37.2147 26.3523 37.1041 26.5176 36.9647 26.6569L36.96 26.6522Z" fill="white"/>
</svg>
