<svg width="48" height="48" viewBox="0 0 48 48" fill="none" xmlns="http://www.w3.org/2000/svg">
<path d="M48 24.0001C48 22.4494 46.6622 19.6163 43.7241 17.0626C42.0471 15.62 40.1358 14.4747 38.0728 13.6763C38.0042 13.6506 37.9285 13.6514 37.8604 13.6784C37.7923 13.7055 37.7367 13.7568 37.7044 13.8226C37.6903 13.8497 37.6762 13.876 37.6603 13.9032L36.7612 15.3938C35.2451 18.0119 34.4472 20.984 34.4484 24.0094C34.4495 27.0348 35.2496 30.0062 36.7678 32.6232L36.7894 32.6597L37.6087 34.1597C37.6522 34.2394 37.7231 34.3006 37.8083 34.332C37.8934 34.3634 37.9871 34.3628 38.0719 34.3304C44.9653 31.6332 48 26.3897 48 24.0001ZM39.195 23.9869C38.8843 24.0276 38.5687 23.9699 38.2925 23.822C38.0163 23.6742 37.7933 23.4435 37.6549 23.1625C37.5164 22.8814 37.4695 22.564 37.5206 22.2549C37.5717 21.9458 37.7183 21.6605 37.9398 21.4389C38.1614 21.2174 38.4467 21.0708 38.7558 21.0197C39.0649 20.9686 39.3823 21.0156 39.6633 21.154C39.9444 21.2925 40.175 21.5154 40.3229 21.7917C40.4708 22.0679 40.5284 22.3835 40.4878 22.6941C40.4449 23.022 40.2949 23.3265 40.0611 23.5603C39.8273 23.7941 39.5228 23.9441 39.195 23.9869Z" fill="#55B3D9"/>
<path d="M31.4484 24C31.4471 20.4435 32.3878 16.95 34.1747 13.875L34.1859 13.8553L34.6191 13.1362C34.6504 13.085 34.6689 13.027 34.6731 12.9671C34.6774 12.9072 34.6672 12.8472 34.6434 12.7921C34.6196 12.737 34.5829 12.6884 34.5364 12.6504C34.4899 12.6124 34.435 12.5861 34.3762 12.5737C33.1626 12.3198 31.9328 12.151 30.6956 12.0684C30.5497 12.059 30.4099 12.0068 30.2934 11.9184C28.4859 10.5441 24.9028 8.14031 21.2503 7.5225C21.0007 7.48114 20.7447 7.50359 20.5061 7.58774C20.2675 7.6719 20.0541 7.81504 19.8857 8.00385C19.7173 8.19265 19.5994 8.42098 19.5429 8.6676C19.4865 8.91422 19.4933 9.17111 19.5628 9.41437L20.5584 12.8991C20.5843 12.9894 20.5754 13.0861 20.5334 13.1701C20.4914 13.2541 20.4193 13.3193 20.3316 13.3528C16.8769 14.6362 13.9012 16.9856 11.7309 18.7762C11.5981 18.885 11.432 18.9448 11.2604 18.9459C11.0887 18.9469 10.9219 18.889 10.7878 18.7819C10.4928 18.5475 10.19 18.3166 9.87937 18.0891C6.16312 15.375 1.79718 15.0178 1.61343 15.0047C1.38013 14.9871 1.14594 15.0243 0.929585 15.1133C0.713225 15.2023 0.520693 15.3407 0.367376 15.5175C0.214058 15.6942 0.104208 15.9043 0.0466031 16.1311C-0.0110016 16.3579 -0.0147632 16.595 0.0356191 16.8234C0.0749941 17.0044 0.897182 20.6381 3.00749 23.5369C3.10249 23.6668 3.1537 23.8236 3.1537 23.9845C3.1537 24.1455 3.10249 24.3023 3.00749 24.4322C0.897182 27.33 0.0749941 30.9647 0.0356191 31.1456C-0.0147632 31.3741 -0.0110016 31.6112 0.0466031 31.838C0.104208 32.0647 0.214058 32.2749 0.367376 32.4516C0.520693 32.6283 0.713225 32.7667 0.929585 32.8558C1.14594 32.9448 1.38013 32.982 1.61343 32.9644C1.80093 32.9512 6.16312 32.5894 9.87468 29.8819C10.1778 29.6594 10.4737 29.4337 10.7625 29.205C10.8967 29.098 11.0636 29.0403 11.2352 29.0415C11.4069 29.0427 11.5729 29.1027 11.7056 29.2116C13.8853 31.0106 16.8666 33.3628 20.3306 34.6491C20.4182 34.6825 20.4901 34.7476 20.532 34.8314C20.574 34.9152 20.5831 35.0117 20.5575 35.1019L19.5581 38.5875C19.4886 38.8308 19.4818 39.0877 19.5382 39.3343C19.5947 39.5809 19.7126 39.8092 19.881 39.998C20.0494 40.1868 20.2628 40.33 20.5014 40.4141C20.74 40.4983 20.996 40.5207 21.2456 40.4794C22.8544 40.2075 26.1094 39.2737 30.2503 36.0891C30.3686 35.9988 30.5107 35.945 30.6591 35.9344C31.8947 35.8535 33.1232 35.6875 34.3359 35.4375C34.3932 35.4255 34.4468 35.4002 34.4926 35.3638C34.5383 35.3274 34.5749 35.2807 34.5994 35.2276C34.6239 35.1745 34.6357 35.1164 34.6337 35.0579C34.6317 34.9995 34.6161 34.9423 34.5881 34.8909L34.1653 34.1137C32.3836 31.0411 31.4463 27.5519 31.4484 24Z" fill="#55B3D9"/>
</svg>
