<svg width="48" height="48" viewBox="0 0 48 48" fill="none" xmlns="http://www.w3.org/2000/svg">
<path d="M48 24C48 22.4494 46.6622 19.6162 43.7241 17.0625C42.0471 15.6199 40.1358 14.4747 38.0728 13.6762C38.0042 13.6506 37.9285 13.6513 37.8604 13.6784C37.7923 13.7054 37.7367 13.7568 37.7044 13.8225C37.6903 13.8497 37.6762 13.8759 37.6603 13.9031L36.7612 15.3937C35.2451 18.0118 34.4472 20.9839 34.4484 24.0093C34.4495 27.0347 35.2496 30.0062 36.7678 32.6231L36.7894 32.6597L37.6087 34.1597C37.6522 34.2393 37.7231 34.3006 37.8083 34.3319C37.8934 34.3633 37.9871 34.3627 38.0719 34.3303C44.9653 31.6331 48 26.3897 48 24ZM39.195 23.9869C38.8843 24.0275 38.5687 23.9698 38.2925 23.822C38.0163 23.6741 37.7933 23.4434 37.6549 23.1624C37.5164 22.8813 37.4695 22.564 37.5206 22.2549C37.5717 21.9458 37.7183 21.6604 37.9398 21.4389C38.1614 21.2173 38.4467 21.0707 38.7558 21.0196C39.0649 20.9685 39.3823 21.0155 39.6633 21.1539C39.9444 21.2924 40.175 21.5154 40.3229 21.7916C40.4708 22.0678 40.5284 22.3834 40.4878 22.6941C40.4449 23.0219 40.2949 23.3264 40.0611 23.5602C39.8273 23.794 39.5228 23.944 39.195 23.9869Z" fill="#0887A0"/>
<path d="M31.4485 24C31.4472 20.4435 32.3878 16.95 34.1747 13.875L34.186 13.8553L34.6191 13.1362C34.6504 13.085 34.669 13.027 34.6732 12.9671C34.6774 12.9072 34.6672 12.8472 34.6434 12.7921C34.6196 12.737 34.5829 12.6884 34.5365 12.6504C34.49 12.6124 34.4351 12.5861 34.3763 12.5737C33.1627 12.3198 31.9328 12.151 30.6957 12.0684C30.5498 12.059 30.4099 12.0068 30.2935 11.9184C28.486 10.5441 24.9029 8.14031 21.2504 7.5225C21.0008 7.48114 20.7448 7.50359 20.5062 7.58774C20.2676 7.6719 20.0542 7.81504 19.8858 8.00385C19.7174 8.19265 19.5994 8.42098 19.543 8.6676C19.4865 8.91422 19.4934 9.17111 19.5629 9.41437L20.5585 12.8991C20.5844 12.9894 20.5754 13.0861 20.5334 13.1701C20.4914 13.2541 20.4194 13.3193 20.3316 13.3528C16.8769 14.6362 13.9013 16.9856 11.731 18.7762C11.5982 18.885 11.4321 18.9448 11.2604 18.9459C11.0888 18.9469 10.922 18.889 10.7879 18.7819C10.4929 18.5475 10.1901 18.3166 9.87943 18.0891C6.16318 15.375 1.79724 15.0178 1.61349 15.0047C1.38019 14.9871 1.14601 15.0243 0.929646 15.1133C0.713286 15.2023 0.520754 15.3407 0.367437 15.5175C0.21412 15.6942 0.104269 15.9043 0.0466642 16.1311C-0.0109406 16.3579 -0.0147021 16.595 0.0356802 16.8234C0.0750552 17.0044 0.897243 20.6381 3.00756 23.5369C3.10255 23.6668 3.15376 23.8236 3.15376 23.9845C3.15376 24.1455 3.10255 24.3023 3.00756 24.4322C0.897243 27.33 0.0750552 30.9647 0.0356802 31.1456C-0.0147021 31.3741 -0.0109406 31.6112 0.0466642 31.838C0.104269 32.0647 0.21412 32.2749 0.367437 32.4516C0.520754 32.6283 0.713286 32.7667 0.929646 32.8558C1.14601 32.9448 1.38019 32.982 1.61349 32.9644C1.80099 32.9512 6.16318 32.5894 9.87474 29.8819C10.1779 29.6594 10.4738 29.4337 10.7626 29.205C10.8968 29.098 11.0636 29.0403 11.2353 29.0415C11.4069 29.0427 11.573 29.1027 11.7057 29.2116C13.8854 31.0106 16.8666 33.3628 20.3307 34.6491C20.4183 34.6825 20.4901 34.7476 20.5321 34.8314C20.5741 34.9152 20.5832 35.0117 20.5576 35.1019L19.5582 38.5875C19.4887 38.8308 19.4818 39.0877 19.5383 39.3343C19.5948 39.5809 19.7127 39.8092 19.8811 39.998C20.0495 40.1868 20.2629 40.33 20.5015 40.4141C20.7401 40.4983 20.9961 40.5207 21.2457 40.4794C22.8544 40.2075 26.1094 39.2737 30.2504 36.0891C30.3687 35.9988 30.5107 35.945 30.6591 35.9344C31.8947 35.8535 33.1233 35.6875 34.336 35.4375C34.3932 35.4255 34.4469 35.4002 34.4926 35.3638C34.5384 35.3274 34.575 35.2807 34.5995 35.2276C34.624 35.1745 34.6357 35.1164 34.6338 35.0579C34.6318 34.9995 34.6162 34.9423 34.5882 34.8909L34.1654 34.1137C32.3837 31.0411 31.4463 27.5519 31.4485 24Z" fill="#0887A0"/>
</svg>
