<svg width="48" height="48" viewBox="0 0 48 48" fill="none" xmlns="http://www.w3.org/2000/svg">
<path d="M45.9544 17.0062L41.8172 12.8691C41.4835 12.5398 41.0384 12.3475 40.5698 12.3301C40.1013 12.3128 39.6432 12.4716 39.286 12.7753C38.7345 13.2448 38.0267 13.4899 37.303 13.4621C36.5793 13.4343 35.8924 13.1356 35.3785 12.6253C34.8684 12.1115 34.5699 11.4248 34.5421 10.7013C34.5144 9.97776 34.7593 9.27021 35.2285 8.71875C35.5322 8.36151 35.691 7.90346 35.6737 7.4349C35.6563 6.96634 35.464 6.52129 35.1347 6.1875L30.9938 2.04562C30.6439 1.69635 30.1696 1.50018 29.6752 1.50018C29.1808 1.50018 28.7066 1.69635 28.3566 2.04562L21.7613 8.64C21.3542 9.04871 21.0471 9.54605 20.8641 10.0931C20.8285 10.1983 20.7691 10.2939 20.6906 10.3724C20.6121 10.4509 20.5165 10.5103 20.4113 10.5459C19.864 10.7289 19.3666 11.0363 18.9582 11.4441L2.04568 28.3566C1.69641 28.7065 1.50024 29.1807 1.50024 29.6752C1.50024 30.1696 1.69641 30.6438 2.04568 30.9937L6.18756 35.1309C6.52135 35.4602 6.9664 35.6525 7.43496 35.6699C7.90352 35.6872 8.36157 35.5284 8.71881 35.2247C9.26901 34.7514 9.97773 34.5036 10.7029 34.5308C11.4282 34.5581 12.1163 34.8584 12.6295 35.3715C13.1426 35.8847 13.4429 36.5728 13.4701 37.298C13.4974 38.0233 13.2495 38.732 12.7763 39.2822C12.4726 39.6394 12.3138 40.0975 12.3311 40.566C12.3485 41.0346 12.5408 41.4796 12.8701 41.8134L17.0072 45.9506C17.3572 46.2999 17.8314 46.4961 18.3258 46.4961C18.8203 46.4961 19.2945 46.2999 19.6444 45.9506L36.5569 29.0381C36.9645 28.63 37.2719 28.1329 37.4551 27.5859C37.4905 27.4804 37.5499 27.3845 37.6287 27.3058C37.7074 27.2271 37.8033 27.1676 37.9088 27.1322C38.4556 26.9492 38.9527 26.6421 39.361 26.235L45.9554 19.6397C46.3034 19.2898 46.4986 18.8163 46.4985 18.3228C46.4983 17.8293 46.3027 17.3559 45.9544 17.0062ZM24.5447 14.2266C24.4055 14.3659 24.2401 14.4764 24.0581 14.5518C23.8761 14.6272 23.681 14.666 23.484 14.666C23.287 14.666 23.0919 14.6272 22.9099 14.5518C22.7278 14.4764 22.5625 14.3659 22.4232 14.2266L21.3441 13.1475C21.0697 12.8648 20.9175 12.4854 20.9204 12.0914C20.9234 11.6974 21.0813 11.3204 21.36 11.0418C21.6387 10.7632 22.0158 10.6055 22.4098 10.6027C22.8038 10.5999 23.1831 10.7523 23.4657 11.0269L24.5447 12.105C24.6841 12.2443 24.7946 12.4097 24.87 12.5917C24.9454 12.7737 24.9842 12.9688 24.9842 13.1658C24.9842 13.3628 24.9454 13.5579 24.87 13.7399C24.7946 13.9219 24.6841 14.0873 24.5447 14.2266ZM28.6697 18.3516C28.3885 18.6327 28.0071 18.7906 27.6094 18.7906C27.2118 18.7906 26.8304 18.6327 26.5491 18.3516L25.5179 17.3203C25.2365 17.039 25.0785 16.6574 25.0785 16.2595C25.0785 15.8617 25.2365 15.4801 25.5179 15.1987C25.7992 14.9174 26.1808 14.7594 26.5786 14.7594C26.9765 14.7594 27.3581 14.9174 27.6394 15.1987L28.6707 16.23C28.8105 16.3693 28.9214 16.5348 28.9972 16.717C29.0729 16.8993 29.1119 17.0946 29.112 17.292C29.1121 17.4893 29.0733 17.6848 28.9977 17.8671C28.9221 18.0494 28.8113 18.215 28.6716 18.3544L28.6697 18.3516ZM32.7947 22.4766C32.6555 22.6159 32.4901 22.7264 32.3081 22.8018C32.1261 22.8772 31.931 22.916 31.734 22.916C31.5369 22.916 31.3419 22.8772 31.1599 22.8018C30.9778 22.7264 30.8125 22.6159 30.6732 22.4766L29.6419 21.4453C29.3675 21.1626 29.2153 20.7832 29.2183 20.3892C29.2212 19.9952 29.3791 19.6182 29.6578 19.3396C29.9365 19.061 30.3136 18.9033 30.7076 18.9005C31.1016 18.8977 31.4809 19.0501 31.7635 19.3247L32.7947 20.3559C32.9349 20.495 33.0463 20.6604 33.1224 20.8425C33.1986 21.0247 33.238 21.2202 33.2384 21.4176C33.2389 21.6151 33.2003 21.8107 33.125 21.9932C33.0496 22.1757 32.939 22.3416 32.7994 22.4812L32.7947 22.4766ZM36.9601 26.6522C36.8208 26.7915 36.6554 26.902 36.4734 26.9774C36.2914 27.0528 36.0963 27.0916 35.8993 27.0916C35.7023 27.0916 35.5072 27.0528 35.3252 26.9774C35.1432 26.902 34.9778 26.7915 34.8385 26.6522L33.766 25.5741C33.6237 25.4352 33.5105 25.2694 33.4329 25.0864C33.3553 24.9034 33.3148 24.7067 33.3139 24.5079C33.3129 24.3091 33.3515 24.1121 33.4274 23.9284C33.5032 23.7446 33.6149 23.5778 33.7558 23.4375C33.8967 23.2973 34.0641 23.1865 34.2482 23.1115C34.4323 23.0365 34.6295 22.9989 34.8283 23.0008C35.0271 23.0028 35.2235 23.0442 35.4062 23.1227C35.5888 23.2012 35.7541 23.3152 35.8922 23.4581L36.9657 24.5353C37.1049 24.6747 37.2154 24.8401 37.2907 25.0221C37.366 25.2042 37.4048 25.3993 37.4047 25.5963C37.4046 25.7933 37.3657 25.9884 37.2902 26.1703C37.2147 26.3523 37.1041 26.5176 36.9647 26.6569L36.9601 26.6522Z" fill="#0887A0"/>
</svg>
