<svg width="48" height="48" viewBox="0 0 48 48" fill="none" xmlns="http://www.w3.org/2000/svg">
<path d="M45.9544 17.0063L41.8172 12.8691C41.4834 12.5398 41.0383 12.3476 40.5698 12.3302C40.1012 12.3128 39.6432 12.4717 39.2859 12.7754C38.7344 13.2448 38.0267 13.4899 37.3029 13.4621C36.5792 13.4344 35.8923 13.1357 35.3784 12.6254C34.8684 12.1115 34.5699 11.4248 34.5421 10.7013C34.5143 9.97782 34.7593 9.27027 35.2284 8.71881C35.5321 8.36157 35.691 7.90352 35.6736 7.43496C35.6563 6.9664 35.464 6.52135 35.1347 6.18756L30.9937 2.04568C30.6438 1.69641 30.1696 1.50024 29.6752 1.50024C29.1807 1.50024 28.7065 1.69641 28.3566 2.04568L21.7612 8.64006C21.3541 9.04877 21.0471 9.54611 20.8641 10.0932C20.8284 10.1984 20.7691 10.2939 20.6905 10.3725C20.612 10.451 20.5164 10.5104 20.4112 10.546C19.8639 10.729 19.3665 11.0364 18.9581 11.4441L2.04562 28.3566C1.69635 28.7066 1.50018 29.1808 1.50018 29.6752C1.50018 30.1696 1.69635 30.6439 2.04562 30.9938L6.1875 35.131C6.52129 35.4603 6.96634 35.6526 7.4349 35.6699C7.90346 35.6873 8.36151 35.5284 8.71875 35.2247C9.26895 34.7515 9.97767 34.5037 10.7029 34.5309C11.4281 34.5581 12.1162 34.8584 12.6294 35.3716C13.1426 35.8848 13.4429 36.5729 13.4701 37.2981C13.4973 38.0233 13.2495 38.732 12.7762 39.2822C12.4725 39.6395 12.3137 40.0975 12.3311 40.5661C12.3484 41.0347 12.5407 41.4797 12.87 41.8135L17.0072 45.9507C17.3571 46.3 17.8314 46.4961 18.3258 46.4961C18.8202 46.4961 19.2944 46.3 19.6444 45.9507L36.5569 29.0382C36.9645 28.63 37.2719 28.133 37.455 27.586C37.4905 27.4805 37.5499 27.3846 37.6286 27.3059C37.7073 27.2271 37.8032 27.1677 37.9087 27.1322C38.4556 26.9493 38.9526 26.6422 39.3609 26.2351L45.9553 19.6397C46.3033 19.2898 46.4986 18.8163 46.4984 18.3228C46.4982 17.8293 46.3026 17.356 45.9544 17.0063ZM24.5447 14.2266C24.4054 14.3659 24.24 14.4765 24.058 14.5519C23.876 14.6273 23.6809 14.6661 23.4839 14.6661C23.2869 14.6661 23.0918 14.6273 22.9098 14.5519C22.7278 14.4765 22.5624 14.3659 22.4231 14.2266L21.3441 13.1476C21.0696 12.8648 20.9174 12.4855 20.9204 12.0915C20.9233 11.6974 21.0812 11.3204 21.3599 11.0419C21.6386 10.7633 22.0157 10.6056 22.4097 10.6028C22.8037 10.6 23.183 10.7524 23.4656 11.0269L24.5447 12.1051C24.684 12.2444 24.7945 12.4097 24.8699 12.5917C24.9453 12.7737 24.9841 12.9688 24.9841 13.1658C24.9841 13.3629 24.9453 13.5579 24.8699 13.7399C24.7945 13.922 24.684 14.0873 24.5447 14.2266ZM28.6697 18.3516C28.3884 18.6327 28.007 18.7906 27.6094 18.7906C27.2117 18.7906 26.8303 18.6327 26.5491 18.3516L25.5178 17.3204C25.2365 17.039 25.0784 16.6575 25.0784 16.2596C25.0784 15.8617 25.2365 15.4801 25.5178 15.1988C25.7991 14.9175 26.1807 14.7594 26.5786 14.7594C26.9765 14.7594 27.358 14.9175 27.6394 15.1988L28.6706 16.2301C28.8104 16.3693 28.9214 16.5348 28.9971 16.7171C29.0728 16.8993 29.1119 17.0947 29.112 17.2921C29.112 17.4894 29.0732 17.6848 28.9976 17.8671C28.922 18.0494 28.8112 18.215 28.6716 18.3544L28.6697 18.3516ZM32.7947 22.4766C32.6554 22.6159 32.49 22.7265 32.308 22.8019C32.126 22.8773 31.9309 22.9161 31.7339 22.9161C31.5369 22.9161 31.3418 22.8773 31.1598 22.8019C30.9778 22.7265 30.8124 22.6159 30.6731 22.4766L29.6419 21.4454C29.3674 21.1626 29.2152 20.7833 29.2182 20.3893C29.2212 19.9953 29.379 19.6182 29.6577 19.3397C29.9364 19.0611 30.3135 18.9034 30.7075 18.9006C31.1015 18.8978 31.4808 19.0502 31.7634 19.3247L32.7947 20.356C32.9349 20.495 33.0462 20.6604 33.1224 20.8426C33.1985 21.0248 33.2379 21.2202 33.2384 21.4177C33.2388 21.6151 33.2002 21.8107 33.1249 21.9933C33.0496 22.1758 32.9389 22.3416 32.7994 22.4813L32.7947 22.4766ZM36.96 26.6522C36.8207 26.7916 36.6553 26.9021 36.4733 26.9775C36.2913 27.0529 36.0962 27.0917 35.8992 27.0917C35.7022 27.0917 35.5071 27.0529 35.3251 26.9775C35.1431 26.9021 34.9777 26.7916 34.8384 26.6522L33.7659 25.5741C33.6237 25.4352 33.5105 25.2695 33.4328 25.0864C33.3552 24.9034 33.3148 24.7068 33.3138 24.508C33.3129 24.3092 33.3515 24.1122 33.4273 23.9284C33.5032 23.7447 33.6148 23.5778 33.7557 23.4376C33.8966 23.2974 34.064 23.1865 34.2482 23.1116C34.4323 23.0366 34.6295 22.999 34.8283 23.0009C35.0271 23.0028 35.2235 23.0442 35.4061 23.1227C35.5888 23.2012 35.754 23.3153 35.8922 23.4582L36.9656 24.5354C37.1049 24.6747 37.2153 24.8401 37.2907 25.0222C37.366 25.2042 37.4047 25.3993 37.4046 25.5963C37.4045 25.7934 37.3656 25.9884 37.2901 26.1704C37.2147 26.3524 37.1041 26.5177 36.9647 26.6569L36.96 26.6522Z" fill="#55B3D9"/>
</svg>
