<svg width="48" height="48" viewBox="0 0 48 48" fill="none" xmlns="http://www.w3.org/2000/svg">
<path d="M24 26C28.4183 26 32 22.4183 32 18C32 13.5817 28.4183 10 24 10C19.5817 10 16 13.5817 16 18C16 22.4183 19.5817 26 24 26Z" fill="#55B3D9"/>
<path d="M34 24C37.3137 24 40 21.3137 40 18C40 14.6863 37.3137 12 34 12C30.6863 12 28 14.6863 28 18C28 21.3137 30.6863 24 34 24Z" fill="#55B3D9"/>
<path d="M14 24C17.3137 24 20 21.3137 20 18C20 14.6863 17.3137 12 14 12C10.6863 12 8 14.6863 8 18C8 21.3137 10.6863 24 14 24Z" fill="#55B3D9"/>
<path fill-rule="evenodd" clip-rule="evenodd" d="M35.1379 36H39.7899C40.9739 36 41.8799 34.98 41.5939 33.832C40.8559 30.892 38.8959 26 33.9999 26C32.2279 26 30.8399 26.64 29.7559 27.6C32.7719 29.554 34.3319 32.98 35.1379 36ZM18.2439 27.6C17.0821 26.5498 15.5659 25.9782 13.9999 26C9.10395 26 7.14395 30.892 6.40595 33.832C6.11995 34.98 7.02595 36 8.20995 36H12.8639C13.6699 32.98 15.2279 29.554 18.2439 27.6Z" fill="#55B3D9"/>
<path d="M23.9999 28C31.4179 28 33.3319 34.602 33.8279 38.012C33.9879 39.106 33.1039 40 31.9999 40H15.9999C14.8959 40 14.0139 39.106 14.1719 38.012C14.6679 34.602 16.5819 28 23.9999 28Z" fill="#55B3D9"/>
</svg>
