<svg width="48" height="48" viewBox="0 0 48 48" fill="none" xmlns="http://www.w3.org/2000/svg">
<path d="M24 26C28.4183 26 32 22.4183 32 18C32 13.5817 28.4183 10 24 10C19.5817 10 16 13.5817 16 18C16 22.4183 19.5817 26 24 26Z" fill="#0887A0"/>
<path d="M34 24C37.3137 24 40 21.3137 40 18C40 14.6863 37.3137 12 34 12C30.6863 12 28 14.6863 28 18C28 21.3137 30.6863 24 34 24Z" fill="#0887A0"/>
<path d="M14 24C17.3137 24 20 21.3137 20 18C20 14.6863 17.3137 12 14 12C10.6863 12 8 14.6863 8 18C8 21.3137 10.6863 24 14 24Z" fill="#0887A0"/>
<path fill-rule="evenodd" clip-rule="evenodd" d="M35.138 36H39.79C40.974 36 41.88 34.98 41.594 33.832C40.856 30.892 38.896 26 34 26C32.228 26 30.84 26.64 29.756 27.6C32.772 29.554 34.332 32.98 35.138 36ZM18.244 27.6C17.0822 26.5498 15.566 25.9782 14 26C9.10401 26 7.14401 30.892 6.40601 33.832C6.12001 34.98 7.02601 36 8.21001 36H12.864C13.67 32.98 15.228 29.554 18.244 27.6Z" fill="#0887A0"/>
<path d="M24 28C31.418 28 33.332 34.602 33.828 38.012C33.988 39.106 33.104 40 32 40H16C14.896 40 14.014 39.106 14.172 38.012C14.668 34.602 16.582 28 24 28Z" fill="#0887A0"/>
</svg>
