<svg xmlns="http://www.w3.org/2000/svg" viewBox="0 0 350.93 104.85"><defs><style>.cls-1{fill:#2c5c70;}.cls-2{fill:#56aacd;}.cls-3{fill:#040000;}</style></defs><g id="レイヤー_2" data-name="レイヤー 2"><g id="レイヤー_2-2" data-name="レイヤー 2"><path class="cls-1" d="M8.78,76.46l.84,1.45A14,14,0,0,1,8.78,76.46Z"/><path class="cls-1" d="M103.32,38.78a2.5,2.5,0,0,0-4.93.6,2.72,2.72,0,0,0,0,.49c1.07,7.81-1.27,14.59-6.28,18.16s-12.35,3.52-19.89-.32c-6.27-3.2-12.17-3.8-17.55-1.78C47.81,58.51,43,65.21,40.85,70.61l-.22.56c-2,5-4.72,11.83-15.06,12.22a15.38,15.38,0,0,1-13.71-6.61,1.64,1.64,0,0,0-.14-.22l-.26-.44q-.21-.34-.42-.72a2.5,2.5,0,0,0-4.78,1,2.74,2.74,0,0,0,.23,1,2.3,2.3,0,0,0,.17.35c.15.28.42.79.85,1.45l0,0,.09.13,0,.08a52.09,52.09,0,0,0,44.92,25.35l1.41,0c.45,0,.89,0,1.24,0,1.16,0,2.33-.15,3.41-.28.53,0,1.06-.12,1.59-.2l.38-.06c.48-.07,1-.15,1.45-.24a6.18,6.18,0,0,0,.62-.12c.49-.09,1-.2,1.45-.3.63-.14,1.27-.29,1.84-.45s1.11-.29,1.62-.46c.68-.2,1.36-.41,2-.63s1.14-.4,1.67-.6l.29-.11c.54-.21,1.07-.42,1.55-.64s1-.41,1.45-.64a4.1,4.1,0,0,0,.4-.18c.53-.25,1-.5,1.53-.75s1.23-.65,1.86-1c.42-.24.84-.48,1.21-.71.66-.39,1.31-.8,2-1.23l1.31-.9c.32-.22.64-.46,1-.69l.63-.48c.43-.32.85-.65,1.24-1l.32-.27c.4-.32.79-.66,1.18-1s1-.86,1.41-1.29.77-.73,1.15-1.11l.29-.3c.39-.39.77-.79,1.09-1.14s.81-.87,1.2-1.33l.08-.1c.4-.44.77-.9,1.12-1.34.88-1.1,1.66-2.15,2.39-3.2.26-.38.52-.76.81-1.22l.12-.18c.32-.49.63-1,.92-1.5s.64-1.08.92-1.6c.61-1.11,1.17-2.23,1.68-3.34l0-.07c.21-.46.41-.93.61-1.4l.2-.47c.16-.38.31-.77.46-1.16l0-.13a2.6,2.6,0,0,0,.1-.25c.14-.36.26-.71.38-1s.26-.75.38-1.12l0-.17c.06-.18.12-.37.17-.56s.19-.58.26-.86a52.59,52.59,0,0,0,1.24-5.3c.09-.45.16-.9.22-1.33.24-1.56.4-3,.5-4.53l.06-1v-.11l0-1.06c0-.45,0-.9,0-1.34A52.48,52.48,0,0,0,103.32,38.78ZM79.58,90a5,5,0,1,1,5-5A5,5,0,0,1,79.58,90Zm4-15.15a4,4,0,1,1,4-4A4,4,0,0,1,83.58,74.87Zm13.55-1.51a2.5,2.5,0,1,1,2.5-2.5A2.49,2.49,0,0,1,97.13,73.36Z"/><path class="cls-2" d="M68.69,17.6a.5.5,0,0,0-.38-.28c-.39-.05-9.66-1.09-19.67,9.77-9.28,10.08-11.93,25.27-12.2,30.55L22.3,57.23a.47.47,0,0,0-.51.4.51.51,0,0,0,.32.57c.08,0,8,3,11.69,15.08a.53.53,0,0,0,.46.36h0a.51.51,0,0,0,.47-.32c.11-.28,11.31-27.76,31.48-21.76a.49.49,0,0,0,.45-.08C66.81,51.38,80,40.93,68.69,17.6ZM61.14,32.52a2.5,2.5,0,1,1,2.5-2.5A2.51,2.51,0,0,1,61.14,32.52Z"/><path class="cls-2" d="M3.4,46.78l-.44,0a2.6,2.6,0,0,1-2.13-3A52.59,52.59,0,0,1,92.77,18.57a2.6,2.6,0,0,1-4,3.36A47.38,47.38,0,0,0,6,44.62,2.6,2.6,0,0,1,3.4,46.78Z"/><circle class="cls-2" cx="2.6" cy="52.52" r="2.6"/><path class="cls-3" d="M146.34,59.64l-2.4,1.1a9.16,9.16,0,0,1,1.68,2.64l-4.2.26V58.05H148V47h-6.6V42.52c1.2-.18,3.32-.44,4.52-.53.64-.09,1.76.27,2.16.09,0-.71-2.08-3.48-2.08-3.48-1.92.84-11.2,2.42-15.48,2.07a5,5,0,0,1,1.52,3.17c4.52-.7,5.64-.88,6.64-1V47h-6.4V58.05h6.4v5.59c-2.44.09-6.32.27-9.28.44l1.2,3.74c3.24-.88,11.28-1.8,16.12-2.15a12.87,12.87,0,0,1,1.2,2.94l2.84-1.75A55.06,55.06,0,0,0,146.34,59.64Zm-4.92-10h3.88v5.81h-3.88Zm-2.72,5.81H135V49.6h3.72Zm18.12,6.12a9.09,9.09,0,0,1-.88,4.71h0c-1,.22-2.83-5-2.83-13.07V39.88a50.48,50.48,0,0,1,.24-6.29,33.77,33.77,0,0,1-5.16.26H130.54a31.56,31.56,0,0,1-4.19-.26,49.63,49.63,0,0,1,.24,5.5V50.7c0,7.35-1.28,13.38-5.24,18.62a6.77,6.77,0,0,1,3.24,2.11c3.95-7.52,5-12.67,5-19.76v-15h20.48V52.38A44.72,44.72,0,0,0,151.5,64c1.52,4.8,4,7,4.6,7.18,1.44.44,2.92-2.64,3.48-7.53A5.26,5.26,0,0,1,156.82,61.53Z"/><path class="cls-3" d="M185,52.69A8.65,8.65,0,0,0,178.42,50h-.95a11.52,11.52,0,0,0-4.29,1,11,11,0,0,0-4.87,4A14,14,0,0,0,166.73,58a10.91,10.91,0,0,0-.67,3.35v.51a8.31,8.31,0,0,0,.85,3.39c.93,1.79,2.51,3.6,4.48,3.6,1.37,0,2.34-1.3,3-2.58a64.46,64.46,0,0,0,2.72-6.48,45.8,45.8,0,0,0,2-7.35,6.28,6.28,0,0,1,3.83,1.89,6.7,6.7,0,0,1,2,4.54v.51c0,4.21-3.41,7.05-6.54,8.65v.21A14,14,0,0,1,180.46,70a.14.14,0,0,0,.19,0,14.06,14.06,0,0,0,4.5-3.8,10,10,0,0,0,2.34-6.28v-.71A9.81,9.81,0,0,0,185,52.69ZM173.83,62a21.85,21.85,0,0,1-1.21,2.42c-.3.56-.86,1.28-1.6,1.28a2.17,2.17,0,0,1-1.69-1.28,6.3,6.3,0,0,1-.93-3v-.44a7.71,7.71,0,0,1,1.32-3.7,11,11,0,0,1,3.74-3.7,9.33,9.33,0,0,1,3.36-1.07A41.85,41.85,0,0,1,173.83,62Z"/><path class="cls-3" d="M225.85,33.23l-2.92,1.68a18.19,18.19,0,0,1,2.16,4.53l3.16-1.63A35.49,35.49,0,0,0,225.85,33.23ZM228.41,63c-.24,2-.56,4-1.36,4.18-.48.08-1.88-2-2.76-4.36,1.88-3.3,3.4-10.91,3.88-13,.24-1,1.2-.92,1.2-1.45,0-.35-1.52-1-4.28-1.67a48.85,48.85,0,0,1-2.32,12.76,88.9,88.9,0,0,1-1.84-16.24h3.6a26.54,26.54,0,0,1,5.32.44V40a21.85,21.85,0,0,1-5.32.44h-3.68V36.14a7.32,7.32,0,0,1,1-3c.08-.18-1.72-.53-4.52-.53,0,0,.32,4.27.48,7.75h-7.32a25,25,0,0,1-3.88-.27c.08,1.76.24,5.15.32,8.94.08,13.42-1.68,16.23-6.36,20.68,3,1.58,3,1.5,3.68,2.24,4.12-6,5.72-10.12,5.72-20.24h3.32V59.9c0,2.16-1.44,2.25-4,1.72-.16.17.48.44,1.56,4.22,2.8-.44,4.68-1.14,5.08-2.9a87.9,87.9,0,0,0,.24-9.95c-.08-1.05.16-3.47.16-4.27a21,21,0,0,1-3.4.27h-3V43.22h8a87.42,87.42,0,0,0,2.68,19.72,25,25,0,0,1-8.16,6.73,12.23,12.23,0,0,1,3.4,2.6,27.31,27.31,0,0,0,6.28-6.07c2,3.82,4.28,6.33,6,5.72,1.36-.49,2.6-3.13,3.48-6.43A14.65,14.65,0,0,1,228.41,63ZM201.57,59.8V47.4h1a27.38,27.38,0,0,1,2.84.18V44.32a21.62,21.62,0,0,1-2.84.18h-1V38c0-2.38,1.2-2.56,1.12-3.26,0-.26-2.24-.7-4.36-.7a26.47,26.47,0,0,1,.24,4.22v6.43h-1a14.23,14.23,0,0,1-3-.27v3.35a25.65,25.65,0,0,1,3-.27h1v13.2c-1.44.4-4.76,1-4.76,1l1.12,3.87c1.72-.62,7-2.47,10.24-3.7l.28-3.56C204.22,58.89,201.77,59.69,201.57,59.8Z"/><path class="cls-3" d="M246.58,44.1H240.7a47.25,47.25,0,0,1-4.76-.35v3.83a37.84,37.84,0,0,1,4.76-.36h4.84c-1.08,4.62-4.36,14-11.72,17.83-.08.35,1.12-.18,3.8,2.86a46.36,46.36,0,0,0,7.76-10.74c2.08-4,2.72-8.36,4.4-13.25C249.78,43.92,247.54,44.1,246.58,44.1Zm19.1-3.93a40.34,40.34,0,0,1-6.33,7.13c.44.88.91,1.78,1.3,2.5,2.43-2,3.62-3.21,6.51-5.53.8-.62,1.76-.35,1.92-.84C269.16,43.25,268.2,42.29,265.68,40.17Zm5,23.12c-5.5-2.64-8.82-5.92-11-9.94a.25.25,0,0,0,0-.07c-.32-.58-.61-1.18-.89-1.79l0,0c-.44-1-.82-1.84-1.13-2.59l0,0-.3-.81c-.13-.32-.25-.61-.34-.86s-.13-.36-.2-.54c-.16-.42-.24-.65-.24-.65-.76-2-1.48-3.9-2-5.64,0-6.64,1-6.55.84-7.21-.07-.36-1.72-.53-4.43-.53a26,26,0,0,1,.4,4.88V65.75c0,2.68-2.52,2.51-4.6,2.07-.4.17.88.7,1.36,4.35,6-.74,6.43-1.36,6.43-5.5V47.22c3.24,10.57,5.4,14.48,13,19.89C269.37,63.55,270.85,63.73,270.69,63.29Z"/><path class="cls-3" d="M301.89,57.88h3.32a39.45,39.45,0,0,1,4.48.17V54.93a34.81,34.81,0,0,1-4.4.18H301c.16-2.29.24-5.2.24-5.2h2.64a27.6,27.6,0,0,1,4.12.18V47a27.6,27.6,0,0,1-4.12.18H297c1.28-2.46,2.08-2.29,2-2.9a21.22,21.22,0,0,0-3.52-1,23.21,23.21,0,0,1-5,9.33l2.88,1.32s.88-1.58,2.28-4h2.8c-.08,1.67-.24,5.2-.24,5.2h-3a31.46,31.46,0,0,1-4.52-.18v3.12a32.61,32.61,0,0,1,4.6-.17h2.32c-1.28,5.41-4.12,8.89-9.44,11.26a7.21,7.21,0,0,1,3.08,2.6,20.46,20.46,0,0,0,8.76-12c1,4.88,4.28,8.62,7.68,11.35,1.44-2.55,3.16-2.91,3.24-3.26C305.61,65.4,303.25,62.06,301.89,57.88Zm3.2-18.79h-9.72c1.76-4.36,2.48-3.92,2.56-4.71-.08-.27-.8-.53-3.8-1.28-.88,4.8-3.36,10.74-6.6,13.51l2.92,1.5c1.44-2.2,3.68-6.21,3.68-6.21h11c3.8,0,4,.27,4.12.18V38.91A20.15,20.15,0,0,1,305.09,39.09Zm-21.92-5.24L280.29,35a27.89,27.89,0,0,1,2.32,5.68l2.92-1.14A41.62,41.62,0,0,0,283.17,33.85Zm2.6,9.9a26.43,26.43,0,0,1,3.84.18V40.76a34.08,34.08,0,0,1-4,.18h-6.88a22.79,22.79,0,0,1-3.8-.18v3.17a24.82,24.82,0,0,1,4.6-.18c.08,10.21-.8,18.4-5.16,24.42a13.14,13.14,0,0,1,2.84,2.56,47.77,47.77,0,0,0,5-19.15h4c-.32,7.71-.24,12-.88,13-.44.79-1.4,1-3.48.62a12.9,12.9,0,0,1,1,3.91c4.68-.61,5.48-1.93,5.64-3.65.56-5.32.16-11.53.88-16.94a21.26,21.26,0,0,1-3.52.26h-3.48V43.75Z"/><path class="cls-3" d="M348.25,61.88a21.86,21.86,0,0,1,.24-3.74c-1,.09-3.12.18-4.68.18h-8.12V54.58h7c2.08,0,4.84.26,4.84.26-.08-1.06-.16-2.29-.16-4.22V48.2a21.32,21.32,0,0,1,.32-3.7,49.21,49.21,0,0,1-6,.18h-4s-3.48,0-5.24-.18a53.55,53.55,0,0,1,.24,5.68v19a17.87,17.87,0,0,1-.24,3.83h3.32s0-1.36-.08-3.56h9.44c0,1.49,0,2-.12,3.65h3.4s-.24-2.77-.24-5.5ZM335.69,47.49h8.92v4.27h-8.92Zm9.52,19.1h-9.52v-5.5h9.52Zm5.72-29.13a24.06,24.06,0,0,1-4,.26h-4a46.84,46.84,0,0,0-1.84-5.23l-3.64.61a19.06,19.06,0,0,1,2.08,4.62h-4.52a35.71,35.71,0,0,1-4.56-.44s.16,1.63.16,2.77c0,.53,0,3.09-.16,4.19h3.52a16.08,16.08,0,0,1-.24-3.75h13.72c0,.2-.09,3-.24,3.7h3.64a22,22,0,0,1-.24-3.34A20.31,20.31,0,0,1,350.93,37.46ZM324,40l-2.32,1a14.33,14.33,0,0,1,1.28,3.91l2.36-.75A12.93,12.93,0,0,0,324,40Zm1.72,20.72-2.6.93A25.07,25.07,0,0,1,325.21,65L320,66.77V59.2h5.44a37.68,37.68,0,0,1,4,.17,23,23,0,0,1-.16-3.87V48.81a34.22,34.22,0,0,1,.16-3.52c-1.2.09-3.44.18-3.52.18h-5.4a13.87,13.87,0,0,1-3.08-.27,65.23,65.23,0,0,0,6.12-8.09,19.68,19.68,0,0,1,4.84,5l2-2.82c-1.88-1.63-4-3.3-5.52-4.53.52-1,1.16-.79,1.24-1.14s-1.64-1.19-3.56-1.81c-1.44,4.8-5.8,10.74-9.68,13.34a9.29,9.29,0,0,1,2.28,2.28c.88-.79,1.12-1,1.76-1.58a32.88,32.88,0,0,1,.24,4.18V65.67a3.06,3.06,0,0,1-2,2.94,36.88,36.88,0,0,1,1.68,3.31,100.2,100.2,0,0,1,9.6-4.63c.72,1.32,1.36,2.47,1.76,3.44l2.68-1.67C329.45,66.41,326.89,62.32,325.69,60.69ZM320,47.84h6.48v3.48H320Zm0,5.68h6.48v3.21H320Z"/></g></g></svg>