<svg width="48" height="48" viewBox="0 0 48 48" fill="none" xmlns="http://www.w3.org/2000/svg">
<path d="M24 4C35.046 4 44 12.954 44 24C44 35.046 35.046 44 24 44C12.954 44 4 35.046 4 24C4 12.954 12.954 4 24 4ZM24 32C23.4696 32 22.9609 32.2107 22.5858 32.5858C22.2107 32.9609 22 33.4696 22 34C22 34.5304 22.2107 35.0391 22.5858 35.4142C22.9609 35.7893 23.4696 36 24 36C24.5304 36 25.0391 35.7893 25.4142 35.4142C25.7893 35.0391 26 34.5304 26 34C26 33.4696 25.7893 32.9609 25.4142 32.5858C25.0391 32.2107 24.5304 32 24 32ZM24 13C22.0772 13 20.2331 13.7638 18.8735 15.1235C17.5138 16.4831 16.75 18.3272 16.75 20.25C16.75 20.7804 16.9607 21.2891 17.3358 21.6642C17.7109 22.0393 18.2196 22.25 18.75 22.25C19.2804 22.25 19.7891 22.0393 20.1642 21.6642C20.5393 21.2891 20.75 20.7804 20.75 20.25C20.7507 19.6601 20.9119 19.0814 21.2164 18.5762C21.5209 18.0709 21.9571 17.658 22.4784 17.3818C22.9997 17.1056 23.5863 16.9765 24.1754 17.0084C24.7644 17.0402 25.3337 17.2318 25.8222 17.5625C26.3107 17.8933 26.6999 18.3508 26.9482 18.8859C27.1965 19.4211 27.2944 20.0137 27.2315 20.6003C27.1685 21.1868 26.9472 21.7452 26.591 22.2155C26.2349 22.6858 25.7575 23.0504 25.21 23.27C23.858 23.81 22 25.194 22 27.5V28C22 28.5304 22.2107 29.0391 22.5858 29.4142C22.9609 29.7893 23.4696 30 24 30C24.5304 30 25.0391 29.7893 25.4142 29.4142C25.7893 29.0391 26 28.5304 26 28C26 27.512 26.1 27.268 26.522 27.06L26.696 26.98C28.2576 26.3518 29.5521 25.1999 30.3575 23.7218C31.1628 22.2438 31.429 20.5316 31.1102 18.8788C30.7915 17.226 29.9078 15.7355 28.6105 14.6629C27.3132 13.5904 25.6832 13.0024 24 13Z" fill="#55B3D9"/>
</svg>
