<svg width="48" height="48" viewBox="0 0 48 48" fill="none" xmlns="http://www.w3.org/2000/svg">
<path fill-rule="evenodd" clip-rule="evenodd" d="M18 10.108C17.87 13.392 18 34.054 18 34.054C18.3227 34.054 18.6387 34.1053 18.948 34.208L30 37.892V13.946C29.6778 13.9459 29.3577 13.8939 29.052 13.792L18 10.108ZM17.052 6.20798C17.6674 6.00302 18.3326 6.00302 18.948 6.20798L30 9.89198L40.578 6.36598C40.9688 6.23576 41.3849 6.20024 41.7921 6.26236C42.1993 6.32448 42.5859 6.48245 42.9201 6.72327C43.2542 6.96408 43.5264 7.28085 43.7142 7.64747C43.9019 8.01409 43.9999 8.42008 44 8.83198V35.28C43.9999 35.9097 43.8017 36.5234 43.4334 37.0342C43.0651 37.545 42.5455 37.927 41.948 38.126L30.948 41.792C30.332 41.998 29.668 41.998 29.052 41.792L18 38.108L7.422 41.634C7.03122 41.7642 6.6151 41.7997 6.20791 41.7376C5.80071 41.6755 5.4141 41.5175 5.07993 41.2767C4.74576 41.0359 4.47358 40.7191 4.28582 40.3525C4.09807 39.9859 4.0001 39.5799 4 39.168V12.72C4.00006 12.0903 4.19827 11.4765 4.56657 10.9657C4.93486 10.4549 5.45454 10.073 6.052 9.87398L17.052 6.20798Z" fill="#0887A0"/>
</svg>
