<svg width="48" height="48" viewBox="0 0 48 48" fill="none" xmlns="http://www.w3.org/2000/svg">
<path fill-rule="evenodd" clip-rule="evenodd" d="M18 10.108C17.87 13.392 18 34.054 18 34.054C18.3227 34.054 18.6387 34.1054 18.948 34.208L30 37.892V13.946C29.6778 13.946 29.3577 13.894 29.052 13.792L18 10.108ZM17.052 6.20804C17.6674 6.00308 18.3326 6.00308 18.948 6.20804L30 9.89204L40.578 6.36604C40.9688 6.23582 41.3849 6.2003 41.7921 6.26242C42.1993 6.32454 42.5859 6.48251 42.9201 6.72333C43.2542 6.96414 43.5264 7.28091 43.7142 7.64753C43.9019 8.01415 43.9999 8.42014 44 8.83204V35.28C43.9999 35.9098 43.8017 36.5235 43.4334 37.0343C43.0651 37.5451 42.5455 37.927 41.948 38.126L30.948 41.792C30.332 41.998 29.668 41.998 29.052 41.792L18 38.108L7.422 41.634C7.03122 41.7643 6.6151 41.7998 6.20791 41.7377C5.80071 41.6755 5.4141 41.5176 5.07993 41.2768C4.74576 41.0359 4.47358 40.7192 4.28582 40.3526C4.09807 39.9859 4.0001 39.5799 4 39.168V12.72C4.00006 12.0903 4.19827 11.4766 4.56657 10.9658C4.93486 10.455 5.45454 10.073 6.052 9.87404L17.052 6.20804Z" fill="#55B3D9"/>
</svg>
