<svg width="90" height="90" viewBox="0 0 90 90" fill="none" xmlns="http://www.w3.org/2000/svg">
<path d="M68.3363 23.3962C61.385 22.338 54.279 23.0579 47.6813 25.4887L46.3913 25.9837C38.1991 29.3051 29.2625 30.3545 20.5238 29.0212C16.7663 28.4399 12.9975 27.5587 9.57377 25.8562C8.71913 25.4288 8.05988 24.6913 7.73065 23.7942C7.40142 22.8972 7.42705 21.9083 7.8023 21.0295C8.17756 20.1508 8.87413 19.4484 9.74976 19.0658C10.6254 18.6833 11.614 18.6494 12.5138 18.9712L12.915 19.1399C15.6188 20.4562 18.7163 21.1537 21.6638 21.6074C28.6156 22.6633 35.7217 21.9408 42.3188 19.5074L43.6088 19.0199C51.8009 15.6985 60.7375 14.6491 69.4763 15.9824C73.1775 16.5524 77.0438 17.4637 80.4263 19.1437C80.8672 19.3637 81.2604 19.6684 81.5835 20.0404C81.9065 20.4124 82.1531 20.8444 82.3091 21.3118C82.4652 21.7792 82.5276 22.2727 82.4927 22.7642C82.4579 23.2557 82.3266 23.7355 82.1063 24.1762C81.6546 25.0576 80.8757 25.7271 79.9364 26.0411C78.9971 26.3551 77.9722 26.2888 77.0813 25.8562C74.3513 24.5737 71.2988 23.8499 68.3363 23.3962ZM68.3363 45.8962C61.385 44.838 54.279 45.5579 47.6813 47.9887L46.3913 48.4837C38.1991 51.8051 29.2625 52.8545 20.5238 51.5212C16.7663 50.9399 12.9975 50.0587 9.57377 48.3562C8.71913 47.9288 8.05988 47.1913 7.73065 46.2942C7.40142 45.3972 7.42705 44.4083 7.8023 43.5295C8.17756 42.6508 8.87413 41.9484 9.74976 41.5658C10.6254 41.1833 11.614 41.1494 12.5138 41.4712L12.915 41.6399C15.6188 42.9562 18.7163 43.6537 21.6638 44.1074C28.6156 45.1633 35.7217 44.4408 42.3188 42.0074L43.6088 41.5199C51.8009 38.1985 60.7375 37.1491 69.4763 38.4824C73.1775 39.0524 77.0438 39.9637 80.4263 41.6437C80.8672 41.8637 81.2604 42.1684 81.5835 42.5404C81.9065 42.9124 82.1531 43.3444 82.3091 43.8118C82.4652 44.2792 82.5276 44.7727 82.4927 45.2642C82.4579 45.7557 82.3266 46.2355 82.1063 46.6762C81.6546 47.5576 80.8757 48.2271 79.9364 48.5411C78.9971 48.8551 77.9722 48.7888 77.0813 48.3562C74.3513 47.0737 71.2988 46.3499 68.3363 45.8962ZM45.0188 71.5087L46.3913 70.9837C55.02 67.5337 62.76 67.5337 68.3363 68.3962C71.2988 68.8499 74.3513 69.5737 77.0775 70.8562C77.9685 71.2888 78.9934 71.3551 79.9327 71.0411C80.872 70.7271 81.6509 70.0576 82.1025 69.1762C82.3229 68.7355 82.4542 68.2557 82.489 67.7642C82.5238 67.2727 82.4614 66.7792 82.3054 66.3118C82.1494 65.8444 81.9028 65.4124 81.5797 65.0404C81.2566 64.6684 80.8634 64.3637 80.4225 64.1437C77.0438 62.4637 73.1775 61.5524 69.4763 60.9824C61.2304 59.7268 52.8006 60.5915 44.9813 63.4949L43.6088 64.0199C36.6605 66.8438 29.0783 67.7378 21.6638 66.6074C19.1363 66.2174 16.5038 65.6512 14.0963 64.6687L12.915 64.1437C12.0294 63.7369 11.0203 63.6909 10.1013 64.0153C9.18235 64.3398 8.4258 65.0092 7.99192 65.8819C7.55804 66.7545 7.48092 67.7618 7.77689 68.6903C8.07286 69.6188 8.71867 70.3956 9.57752 70.8562C12.9975 72.5624 16.7663 73.4437 20.5238 74.0174C26.835 74.9924 35.4488 75.0299 45.0188 71.5087Z" fill="#C9E7F2"/>
</svg>
